<?xml version="1.0" standalone="no"?>
<!DOCTYPE svg PUBLIC "-//W3C//DTD SVG 20010904//EN"
 "http://www.w3.org/TR/2001/REC-SVG-20010904/DTD/svg10.dtd">
<svg version="1.0" xmlns="http://www.w3.org/2000/svg"
 width="512.000000pt" height="512.000000pt" viewBox="0 0 512.000000 512.000000"
 preserveAspectRatio="xMidYMid meet">
<metadata>
Created by potrace 1.14, written by Peter Selinger 2001-2017
</metadata>
<g transform="translate(0.000000,512.000000) scale(0.100000,-0.100000)"
fill="#000000" stroke="none">
<path d="M0 3295 c0 -1658 1 -1825 16 -1825 9 0 14 -6 11 -12 -2 -7 -10 -12
-16 -11 -8 2 -11 -190 -11 -722 l0 -725 27 0 c21 0 24 3 15 12 -13 13 -16 76
-4 96 5 7 26 11 50 10 l42 -1 0 -59 c0 -55 1 -58 25 -58 24 0 25 3 25 58 l0
59 40 1 c31 1 42 -3 51 -19 15 -30 2 -36 -21 -11 -31 33 -50 18 -50 -39 l0
-49 63 0 63 0 -4 35 c-2 19 -1 46 2 60 5 21 12 25 41 25 42 0 59 -26 52 -81
-5 -37 -4 -39 22 -39 27 0 27 0 23 60 -3 40 -1 60 7 60 6 0 11 -17 11 -39 0
-52 8 -71 30 -71 22 0 30 19 30 71 0 22 5 39 11 39 8 0 10 -20 7 -60 l-4 -60
28 0 c28 0 28 1 28 59 l0 59 43 -2 42 -1 3 -57 c3 -56 4 -58 30 -58 26 0 28 2
24 35 -2 19 -1 47 2 61 6 23 11 26 41 22 33 -4 35 -2 35 24 0 15 5 28 10 28 6
0 10 -35 10 -85 l0 -85 84 0 c46 0 98 3 115 6 29 6 31 9 31 50 0 37 -3 44 -20
44 -11 0 -20 5 -20 10 0 6 14 10 30 10 30 0 30 -1 30 -55 0 -48 3 -55 19 -55
11 0 26 -3 35 -6 14 -5 16 3 16 55 l0 61 53 -1 c28 -1 55 -7 59 -13 4 -6 8
-32 8 -58 0 -41 3 -48 19 -48 14 0 18 5 14 20 -7 28 14 50 48 50 18 0 29 5 29
14 0 19 -30 29 -47 15 -16 -14 -31 -3 -16 12 6 6 26 9 44 7 34 -3 34 -3 37
-60 l3 -58 36 0 c29 0 34 3 25 12 -13 13 -16 76 -4 96 5 7 26 11 50 10 l42 -1
0 -59 c0 -54 1 -58 24 -58 22 0 23 3 18 45 -5 53 8 75 47 75 33 0 51 -17 51
-47 0 -20 -5 -23 -41 -23 -33 0 -40 -3 -37 -18 3 -13 12 -16 41 -15 23 2 35
-1 32 -7 -4 -6 12 -10 39 -10 26 0 46 5 49 13 3 9 9 9 26 -1 15 -9 105 -12
354 -12 l334 0 -5 55 c-5 62 10 110 40 126 31 17 33 2 5 -27 -21 -21 -27 -36
-27 -71 0 -82 2 -83 155 -83 l135 0 0 35 c0 19 5 35 10 35 6 0 10 -16 10 -35
l0 -35 66 0 65 0 -3 33 c-2 24 -8 33 -25 35 -31 5 -29 22 2 22 23 0 25 4 25
44 0 42 10 56 41 56 18 0 9 -18 -12 -23 -18 -5 -20 -11 -15 -32 4 -16 2 -33
-5 -41 -9 -11 -9 -18 1 -29 7 -8 10 -25 6 -40 l-6 -25 129 0 c113 0 130 2 136
18 6 16 7 16 19 0 9 -12 27 -18 54 -18 35 0 39 2 35 20 -6 24 12 27 21 4 9
-23 50 -14 54 12 2 17 -6 26 -35 40 -47 23 -55 56 -19 79 19 12 29 14 44 6 21
-11 37 -41 23 -41 -5 0 -12 7 -15 16 -9 23 -51 14 -51 -11 0 -13 13 -26 39
-38 35 -17 38 -21 34 -54 l-4 -35 35 6 c20 3 42 6 49 6 8 0 12 17 12 49 0 43
-3 50 -22 54 -17 3 -14 5 10 6 l32 1 0 -54 c0 -52 1 -54 31 -60 17 -3 43 -6
58 -6 25 0 26 2 22 51 -2 40 -7 52 -25 59 l-21 9 23 0 c15 1 22 7 22 21 0 11
5 20 10 20 6 0 10 -9 10 -19 0 -14 8 -21 28 -24 l27 -4 -27 -2 c-27 -1 -28 -4
-28 -50 0 -48 0 -48 38 -55 60 -10 61 -9 55 33 -7 51 10 81 45 81 34 0 52 -16
52 -47 0 -20 -5 -23 -41 -23 -33 0 -40 -3 -37 -17 3 -14 13 -18 41 -17 20 1
34 -3 31 -7 -3 -5 15 -9 39 -9 33 0 47 4 52 18 6 16 7 16 20 -1 9 -13 23 -17
47 -15 l33 3 3 78 3 78 41 -3 c49 -4 70 -27 51 -58 -9 -13 -9 -21 -2 -26 6 -3
9 -22 7 -40 -4 -31 -2 -34 23 -34 22 0 26 4 22 20 -7 28 14 50 48 50 19 0 29
5 29 15 0 21 -27 30 -45 15 -18 -15 -34 -5 -18 11 6 6 26 9 44 7 34 -3 34 -3
37 -61 3 -56 4 -57 32 -57 22 0 28 4 24 15 -4 8 -1 15 5 15 6 0 11 -4 11 -10
0 -5 14 -10 31 -10 41 0 36 31 -7 42 -34 8 -47 28 -38 53 8 20 68 20 84 0 15
-18 7 -19 -19 -3 -21 13 -55 4 -49 -13 2 -7 19 -17 38 -23 29 -9 35 -16 35
-39 -1 -23 3 -27 26 -27 26 0 27 2 22 39 -7 51 10 81 45 81 34 0 52 -16 52
-47 0 -20 -5 -23 -41 -23 -33 0 -40 -3 -37 -17 3 -14 13 -18 41 -17 20 1 34
-3 31 -7 -3 -5 10 -9 28 -9 l33 0 -3 80 c-2 50 0 80 7 80 6 0 11 -31 13 -72 3
-62 6 -73 22 -76 27 -6 36 15 36 86 0 34 4 62 10 62 13 0 13 -101 0 -134 -9
-24 -8 -26 20 -26 l30 0 0 81 0 80 48 -3 c44 -3 47 -5 50 -34 2 -18 -3 -36
-12 -43 -13 -11 -13 -16 1 -47 13 -27 23 -34 45 -34 l28 0 2 83 2 82 3 -76 4
-76 61 -7 c33 -3 72 -6 84 -6 l24 0 0 1615 c0 1599 0 1615 -20 1615 -27 0 -44
34 -30 60 6 11 20 20 30 20 14 0 20 7 20 22 0 17 -3 19 -12 10 -7 -7 -18 -12
-25 -12 -22 0 -14 20 12 30 l25 10 0 875 0 875 -1092 -1 c-601 -1 -1080 -4
-1064 -8 53 -11 61 -70 12 -79 -29 -6 -66 7 -66 23 0 18 5 19 29 3 22 -13 55
-4 49 15 -3 6 -16 13 -31 15 -14 2 -31 10 -37 18 -20 23 -50 18 -50 -9 0 -79
-94 -93 -106 -16 l-7 39 -59 0 c-58 0 -59 0 -56 -26 4 -39 32 -53 57 -30 21
19 21 19 21 -1 0 -34 -56 -45 -84 -17 -9 8 -16 29 -16 45 0 22 -5 29 -20 29
-15 0 -20 -7 -20 -29 0 -35 -23 -61 -54 -61 -29 0 -44 17 -52 58 -6 30 -9 32
-50 32 l-44 0 0 -45 c0 -25 -4 -45 -10 -45 -5 0 -10 20 -10 45 l0 45 -250 0
c-216 0 -250 -2 -250 -15 0 -11 -11 -15 -40 -15 -29 0 -40 -4 -40 -15 0 -21
29 -31 50 -17 22 13 34 4 19 -15 -15 -17 -63 -17 -78 0 -6 8 -14 28 -17 45 -6
30 -9 32 -50 32 -37 0 -44 -3 -44 -19 0 -35 12 -51 36 -51 13 0 24 -4 24 -10
0 -14 -54 -12 -68 2 -7 7 -12 27 -12 45 l0 33 -61 0 -60 0 3 -32 c2 -25 8 -34
26 -36 35 -5 26 -24 -10 -20 -31 3 -33 6 -36 46 l-3 42 -55 0 -54 0 0 -35 c0
-31 3 -35 25 -35 14 0 25 -4 25 -10 0 -6 -27 -10 -60 -10 -33 0 -60 4 -60 10
0 6 11 10 25 10 22 0 25 4 25 35 l0 35 -71 0 -70 0 3 -32 c2 -25 8 -34 26 -36
35 -5 26 -24 -10 -20 -31 3 -33 6 -36 46 -3 42 -3 42 -43 42 -21 0 -39 -4 -39
-10 0 -5 -18 -10 -40 -10 -22 0 -40 5 -40 10 0 6 -15 10 -33 10 -31 0 -33 -3
-55 -65 -14 -38 -30 -65 -38 -65 -10 0 -11 5 -3 23 7 16 6 33 -4 62 l-14 40
-62 2 -61 2 0 -45 c0 -32 -4 -44 -15 -44 -11 0 -15 12 -15 45 l0 45 -51 0 -50
0 3 -32 c2 -28 8 -34 31 -36 36 -4 35 -22 -1 -22 -37 0 -52 17 -52 57 0 31 -2
33 -35 33 -35 0 -35 0 -35 -45 0 -25 -4 -45 -10 -45 -5 0 -10 20 -10 45 0 43
-1 45 -30 45 -29 0 -30 -2 -30 -45 0 -25 -4 -45 -10 -45 -5 0 -10 20 -10 45 0
38 -3 45 -20 45 -11 0 -20 -7 -20 -15 0 -11 -11 -15 -40 -15 -29 0 -40 -4 -40
-15 0 -21 29 -31 50 -17 22 13 34 4 19 -15 -15 -17 -63 -17 -78 0 -6 8 -14 28
-17 45 l-7 32 -153 0 -154 0 0 -1825z m238 1752 c2 -10 -3 -17 -12 -17 -18 0
-29 16 -21 31 9 14 29 6 33 -14z m2876 -4 c-10 -46 -13 -53 -24 -53 -11 0 -6
52 7 73 11 18 23 4 17 -20z m576 0 c0 -31 -15 -61 -25 -51 -9 9 5 78 16 78 5
0 9 -12 9 -27z m575 -5 c-10 -49 -25 -58 -25 -17 0 36 6 49 22 49 5 0 7 -15 3
-32z m579 5 c-10 -46 -13 -53 -24 -53 -11 0 -6 52 7 73 11 18 23 4 17 -20z
m-2584 2 c0 -8 -9 -15 -20 -15 -11 0 -20 7 -20 15 0 8 9 15 20 15 11 0 20 -7
20 -15z m2300 -200 c0 -8 -7 -15 -15 -15 -8 0 -15 7 -15 15 0 8 7 15 15 15 8
0 15 -7 15 -15z m-3500 -25 c0 -26 3 -29 18 -22 19 10 43 5 54 -12 11 -16 10
-116 -1 -116 -5 0 -11 23 -13 51 -6 59 -20 78 -43 59 -10 -8 -15 -29 -15 -61
0 -27 -4 -49 -10 -49 -6 0 -10 37 -10 90 0 53 4 90 10 90 6 0 10 -14 10 -30z
m2482 -47 c3 -77 3 -78 31 -81 39 -5 33 -22 -8 -22 -43 0 -55 23 -55 106 0 47
-2 54 -20 54 -11 0 -20 5 -20 10 0 6 16 10 35 10 l34 0 3 -77z m140 0 c3 -77
3 -78 31 -81 36 -4 35 -22 -1 -22 -43 0 -52 17 -52 92 0 66 -1 68 -26 68 -14
0 -23 4 -19 10 3 6 19 10 35 10 l29 0 3 -77z m1148 13 c0 -80 6 -96 36 -96 13
0 24 -4 24 -10 0 -14 -54 -12 -68 2 -7 7 -12 40 -12 80 0 61 -2 68 -20 68 -11
0 -20 5 -20 10 0 6 14 10 30 10 l30 0 0 -64z m-4750 34 c0 -15 7 -20 25 -20
14 0 25 -4 25 -10 0 -5 -12 -10 -26 -10 -23 0 -25 -3 -22 -42 2 -36 7 -44 26
-46 35 -5 26 -24 -10 -20 -32 3 -33 4 -36 56 -3 44 -6 52 -23 52 -25 0 -25 16
1 23 11 3 20 12 20 21 0 9 5 16 10 16 6 0 10 -9 10 -20z m2593 0 c3 -14 14
-20 32 -20 15 0 24 -4 20 -10 -3 -5 -17 -10 -31 -10 -23 0 -25 -3 -22 -42 2
-36 7 -44 26 -46 27 -4 30 -22 3 -22 -42 0 -51 10 -51 61 0 42 -3 49 -20 49
-11 0 -20 4 -20 9 0 5 9 11 20 14 11 3 20 12 20 21 0 23 17 20 23 -4z m1727 0
c0 -15 7 -20 25 -20 14 0 25 -4 25 -10 0 -5 -12 -10 -26 -10 -23 0 -25 -3 -22
-42 2 -36 7 -44 26 -46 35 -5 26 -24 -10 -20 -32 3 -33 4 -36 56 -3 44 -6 52
-23 52 -25 0 -25 16 1 23 11 3 20 12 20 21 0 9 5 16 10 16 6 0 10 -9 10 -20z
m290 0 c0 -15 7 -20 25 -20 14 0 25 -4 25 -10 0 -5 -11 -10 -25 -10 -23 0 -25
-4 -25 -45 0 -41 2 -45 25 -45 14 0 25 -4 25 -10 0 -5 -13 -10 -30 -10 -35 0
-50 23 -50 74 0 25 -4 36 -15 36 -8 0 -15 5 -15 10 0 6 7 10 15 10 8 0 15 9
15 20 0 11 7 20 15 20 8 0 15 -9 15 -20z m-4446 -20 c24 -9 26 -14 26 -69 l0
-59 -47 2 c-48 1 -48 1 -48 36 0 33 2 35 38 38 39 3 46 12 24 30 -8 7 -18 7
-27 2 -8 -6 -20 -10 -27 -10 -18 0 -4 28 15 33 10 3 18 5 19 6 1 0 13 -3 27
-9z m157 0 c17 0 19 -8 19 -66 0 -84 -11 -104 -55 -104 -19 0 -35 5 -35 10 0
6 14 10 30 10 23 0 30 5 30 19 0 14 -5 18 -20 14 -32 -8 -50 15 -50 63 0 44
20 69 48 59 8 -3 22 -5 33 -5z m153 -11 c16 -15 -1 -21 -23 -9 -12 6 -26 8
-31 5 -17 -11 -11 -35 9 -35 36 0 51 -12 51 -40 0 -40 -63 -57 -90 -25 -17 21
-7 29 18 14 22 -14 56 -5 50 14 -3 6 -17 13 -31 15 -45 6 -60 65 -19 75 20 5
53 -2 66 -14z m406 -5 c0 -17 -26 -19 -36 -3 -7 12 15 31 28 23 4 -3 8 -12 8
-20z m318 -38 c4 -53 -9 -76 -44 -76 -36 0 -55 27 -52 73 2 32 8 44 27 53 42
21 66 4 69 -50z m270 48 c12 -8 22 -26 22 -40 0 -21 -4 -24 -40 -24 -29 0 -40
-4 -40 -15 0 -22 29 -30 52 -16 25 15 35 7 18 -14 -15 -18 -61 -20 -78 -3 -13
13 -16 86 -4 104 6 10 27 21 42 23 3 1 16 -6 28 -15z m164 -8 c13 -18 9 -36
-7 -36 -8 0 -15 6 -15 14 0 19 -25 27 -39 13 -6 -6 -11 -33 -11 -59 0 -26 -4
-48 -10 -48 -6 0 -10 29 -10 66 0 51 3 65 13 61 8 -3 20 -1 27 3 15 9 41 2 52
-14z m552 14 c14 -5 26 -16 26 -25 0 -18 -4 -19 -29 -3 -32 20 -53 3 -49 -39
3 -43 33 -58 55 -27 16 22 31 9 17 -14 -13 -21 -60 -28 -80 -11 -8 7 -14 29
-14 55 0 33 5 46 22 58 27 19 21 18 52 6z m308 -13 c10 -16 -9 -22 -26 -8 -16
13 -49 4 -43 -13 2 -6 16 -13 32 -16 36 -6 54 -33 39 -57 -15 -24 -82 -30 -90
-8 -8 21 3 32 18 17 7 -7 20 -12 31 -12 31 0 15 33 -21 42 -59 16 -33 86 28
72 14 -3 28 -11 32 -17z m286 -5 c29 -37 1 -112 -43 -112 -33 0 -55 26 -55 64
0 66 59 95 98 48z m120 20 c23 19 42 -17 42 -79 0 -70 -18 -68 -22 2 -2 30 -7
55 -13 55 -5 0 -11 -25 -13 -55 -2 -30 -7 -55 -12 -55 -5 0 -10 25 -12 55 -2
30 -7 55 -13 55 -5 0 -11 -25 -13 -55 -4 -77 -22 -69 -22 9 0 59 2 65 23 68
12 2 26 1 31 -4 5 -4 16 -2 24 4z m303 -2 c17 0 19 -8 19 -66 0 -84 -11 -104
-55 -104 -19 0 -35 5 -35 10 0 6 14 10 30 10 23 0 30 5 30 19 0 14 -5 18 -20
14 -32 -8 -50 15 -50 63 0 44 20 69 48 59 8 -3 22 -5 33 -5z m133 0 c24 -9 26
-14 26 -69 l0 -59 -47 2 c-48 1 -48 1 -48 36 0 33 2 35 38 38 39 3 46 12 24
30 -8 7 -18 7 -27 2 -8 -6 -20 -10 -27 -10 -18 0 -4 28 15 33 10 3 18 5 19 6
1 0 13 -3 27 -9z m430 0 c20 -7 26 -16 26 -40 0 -28 -2 -30 -40 -30 -43 0 -43
0 -34 -24 7 -19 35 -21 52 -4 17 17 28 2 12 -17 -18 -22 -67 -19 -80 4 -18 35
-12 88 12 105 27 19 21 18 52 6z m157 0 c10 -6 19 -20 19 -30 0 -26 -7 -25
-31 3 -19 22 -19 22 -34 3 -8 -11 -15 -39 -15 -63 0 -24 -4 -43 -10 -43 -6 0
-10 29 -10 66 0 51 3 65 13 61 8 -3 20 -1 28 4 18 11 17 11 40 -1z m1020 -27
c14 -38 12 -42 -37 -45 -43 -3 -44 -4 -30 -23 13 -17 18 -18 35 -7 26 15 31
15 31 -2 0 -15 -21 -26 -50 -26 -60 0 -69 114 -10 132 26 8 51 -4 61 -29z
m-3661 -28 l16 -49 14 47 c12 44 25 65 36 55 2 -3 -6 -33 -17 -67 -26 -76 -45
-77 -70 -6 -21 60 -23 78 -7 73 6 -2 19 -26 28 -53z m990 19 c0 -41 15 -74 34
-74 18 0 26 22 26 71 0 21 5 39 10 39 14 0 12 -104 -2 -118 -19 -19 -66 -15
-78 7 -13 25 -13 111 0 111 6 0 10 -16 10 -36z m1745 -6 l18 -43 13 30 c7 17
13 36 14 43 0 6 7 12 16 12 11 0 14 -5 9 -17 -4 -10 -18 -48 -32 -85 -14 -38
-31 -68 -39 -68 -11 0 -11 5 -3 23 8 18 6 35 -10 78 -23 60 -25 69 -12 69 5 0
17 -19 26 -42z m465 -13 c0 -48 2 -55 20 -55 11 0 20 -4 20 -10 0 -5 -25 -10
-55 -10 -30 0 -55 5 -55 10 0 6 11 10 25 10 23 0 25 4 25 45 0 38 -3 45 -19
45 -11 0 -23 5 -26 10 -4 6 8 10 29 10 l36 0 0 -55z m-1420 5 c0 -5 -18 -10
-40 -10 -22 0 -40 5 -40 10 0 6 18 10 40 10 22 0 40 -4 40 -10z m1150 0 c0 -5
-16 -10 -35 -10 -19 0 -35 5 -35 10 0 6 16 10 35 10 19 0 35 -4 35 -10z
m-2470 -49 c0 -25 -14 -71 -21 -71 -10 0 -12 41 -3 64 6 17 24 22 24 7z m288
-14 c2 -10 -3 -17 -12 -17 -10 0 -16 9 -16 21 0 24 23 21 28 -4z m-1148 -3 c0
-9 -7 -14 -17 -12 -25 5 -28 28 -4 28 12 0 21 -6 21 -16z m2170 -269 l0 -95
-100 0 -100 0 0 95 0 95 100 0 100 0 0 -95z m1404 89 c11 -4 16 -19 16 -50 0
-40 2 -44 25 -44 14 0 25 -4 25 -9 0 -5 -11 -12 -25 -15 -21 -5 -25 -12 -25
-46 0 -29 -5 -42 -19 -50 -27 -14 -41 -13 -41 5 0 8 7 15 15 15 11 0 15 12 16
43 3 79 -3 122 -17 133 -27 21 -8 32 30 18z m-3624 -41 c0 -26 3 -28 37 -28
l38 0 0 -54 c0 -59 -17 -81 -51 -66 -17 7 -17 8 6 14 21 6 26 14 28 48 2 31
-1 42 -15 47 -24 10 -46 -22 -40 -59 5 -34 0 -55 -14 -55 -5 0 -9 41 -9 90 0
53 4 90 10 90 6 0 10 -12 10 -27z m510 -62 c0 -98 0 -98 -67 -85 -27 5 -39 56
-23 98 9 24 15 28 40 24 25 -4 30 -1 30 17 0 19 7 35 17 35 2 0 3 -40 3 -89z
m822 12 c3 -77 3 -78 31 -81 36 -4 35 -22 -1 -22 -43 0 -52 17 -52 92 0 61 -2
68 -20 68 -11 0 -20 5 -20 10 0 6 13 10 30 10 l29 0 3 -77z m-1572 11 c0 -8
-7 -14 -15 -14 -15 0 -21 21 -9 33 10 9 24 -2 24 -19z m3600 0 c0 -8 -7 -14
-15 -14 -15 0 -21 21 -9 33 10 9 24 -2 24 -19z m-3140 -3 c15 -29 12 -77 -6
-95 -18 -19 -55 -21 -72 -4 -13 13 -16 75 -6 102 9 24 71 21 84 -3z m148 -8
c2 -13 -1 -23 -7 -23 -6 0 -11 6 -11 14 0 16 -27 29 -41 20 -5 -3 -9 -27 -9
-54 0 -27 -4 -52 -10 -55 -6 -4 -10 18 -10 58 l0 65 43 -2 c35 -1 42 -4 45
-23z m280 15 c7 -7 12 -22 12 -35 0 -20 -5 -23 -41 -23 -33 0 -40 -3 -37 -17
3 -14 12 -17 42 -16 33 2 36 1 26 -12 -15 -18 -61 -20 -78 -3 -7 7 -12 30 -12
53 0 47 13 65 50 65 14 0 31 -5 38 -12z m153 -9 c15 -30 2 -36 -21 -11 -32 34
-50 18 -50 -44 0 -30 -4 -54 -10 -54 -6 0 -10 28 -10 63 l0 64 40 1 c31 1 42
-3 51 -19z m283 5 c9 -24 0 -29 -19 -10 -9 9 -20 16 -24 16 -31 0 -44 -86 -15
-97 9 -3 25 -1 36 6 25 15 35 7 18 -14 -14 -17 -43 -19 -71 -5 -14 8 -19 21
-19 53 0 24 5 48 12 55 18 18 75 15 82 -4z m149 -20 c20 -69 -49 -126 -87 -72
-19 26 -20 46 -6 83 9 23 15 26 47 23 32 -3 39 -7 46 -34z m275 24 c7 -7 12
-30 12 -53 0 -46 -13 -65 -46 -65 -33 0 -54 27 -54 69 0 44 14 61 50 61 14 0
31 -5 38 -12z m160 -15 c2 -13 -1 -23 -7 -23 -6 0 -11 6 -11 14 0 8 -8 17 -17
20 -25 10 -43 -20 -43 -71 0 -24 -4 -43 -10 -43 -6 0 -10 28 -10 64 l0 64 48
-2 c41 -1 47 -4 50 -23z m110 15 c-3 -7 -11 -13 -18 -13 -7 0 -15 6 -17 13 -3
7 4 12 17 12 13 0 20 -5 18 -12z m-848 -38 c0 -5 -16 -10 -35 -10 -19 0 -35 5
-35 10 0 6 16 10 35 10 19 0 35 -4 35 -10z m-1175 -72 c-9 -40 -13 -48 -26
-48 -5 0 -7 12 -3 28 10 45 13 52 24 52 8 0 9 -11 5 -32z m3600 0 c-9 -40 -13
-48 -26 -48 -5 0 -7 12 -3 28 10 45 13 52 24 52 8 0 9 -11 5 -32z m-1577 10
c-7 -19 -38 -22 -38 -4 0 10 9 16 21 16 12 0 19 -5 17 -12z m-708 -273 l0 -95
-100 0 -100 0 0 95 0 95 100 0 100 0 0 -95z m1404 89 c11 -4 16 -19 16 -50 0
-40 2 -44 25 -44 14 0 25 -4 25 -9 0 -5 -11 -12 -25 -15 -21 -5 -25 -12 -25
-46 0 -29 -5 -42 -19 -50 -27 -14 -41 -13 -41 5 0 8 7 15 15 15 11 0 15 12 16
43 3 79 -3 122 -17 133 -27 21 -8 32 30 18z m-3114 -104 c0 -53 -4 -90 -10
-90 -5 0 -10 5 -10 12 0 9 -3 9 -12 0 -33 -33 -68 -1 -68 61 0 41 20 61 55 55
22 -5 25 -2 25 23 0 16 5 29 10 29 6 0 10 -37 10 -90z m822 13 c3 -77 3 -78
31 -81 36 -4 35 -22 -1 -22 -43 0 -52 17 -52 92 0 66 -1 68 -25 68 -14 0 -25
5 -25 10 0 6 16 10 35 10 l34 0 3 -77z m2028 11 c0 -8 -7 -14 -15 -14 -15 0
-21 21 -9 33 10 9 24 -2 24 -19z m-2992 -11 c2 -13 -1 -23 -7 -23 -6 0 -11 6
-11 14 0 16 -27 29 -41 20 -5 -3 -9 -27 -9 -54 0 -27 -5 -52 -10 -55 -6 -4
-10 18 -10 58 l0 65 43 -2 c35 -1 42 -4 45 -23z m282 8 c20 -39 13 -51 -31
-51 -33 0 -40 -3 -37 -17 3 -13 13 -18 36 -17 39 2 42 -13 5 -22 -36 -9 -57 7
-61 46 -6 60 4 80 43 80 24 0 37 -6 45 -19z m151 -2 c15 -30 2 -36 -21 -11
-32 34 -50 18 -50 -44 0 -30 -4 -54 -10 -54 -6 0 -10 28 -10 63 l0 64 40 1
c31 1 42 -3 51 -19z m283 5 c9 -24 0 -29 -19 -10 -9 9 -20 16 -24 16 -31 0
-44 -86 -15 -97 9 -3 25 -1 36 6 25 15 35 7 18 -14 -14 -17 -43 -19 -71 -5
-14 8 -19 21 -19 53 0 24 5 48 12 55 18 18 75 15 82 -4z m134 4 c16 -16 16
-90 0 -106 -17 -17 -54 -15 -72 4 -19 18 -21 85 -4 102 7 7 24 12 38 12 14 0
31 -5 38 -12z m290 0 c16 -16 16 -90 0 -106 -17 -17 -54 -15 -72 4 -19 18 -21
85 -4 102 7 7 24 12 38 12 14 0 31 -5 38 -12z m157 -9 c10 -31 -2 -35 -24 -8
-28 35 -51 12 -51 -52 0 -27 -4 -49 -10 -49 -6 0 -10 28 -10 63 l0 64 44 1
c37 2 46 -1 51 -19z m113 9 c-3 -7 -11 -13 -18 -13 -7 0 -15 6 -17 13 -3 7 4
12 17 12 13 0 20 -5 18 -12z m-848 -38 c0 -5 -16 -10 -35 -10 -19 0 -35 5 -35
10 0 6 16 10 35 10 19 0 35 -4 35 -10z m2425 -72 c-9 -40 -13 -48 -26 -48 -5
0 -7 12 -3 28 10 45 13 52 24 52 8 0 9 -11 5 -32z m-1577 10 c-7 -19 -38 -22
-38 -4 0 10 9 16 21 16 12 0 19 -5 17 -12z m1152 -203 c0 -8 -7 -15 -15 -15
-8 0 -15 7 -15 15 0 8 7 15 15 15 8 0 15 -7 15 -15z m1440 0 c0 -8 -7 -15 -15
-15 -8 0 -15 7 -15 15 0 8 7 15 15 15 8 0 15 -7 15 -15z m-457 -25 c-4 -15 0
-20 16 -20 16 0 21 6 21 25 0 14 5 25 11 25 7 0 9 -10 7 -25 -3 -13 0 -26 6
-29 8 -3 8 -7 0 -13 -17 -13 -24 -41 -11 -46 8 -2 6 -9 -6 -21 -9 -10 -17 -24
-17 -32 0 -8 -5 -14 -10 -14 -6 0 -8 11 -4 25 5 21 3 25 -15 25 -16 0 -21 -6
-21 -25 0 -14 -4 -25 -9 -25 -11 0 -21 63 -11 70 3 3 9 13 13 23 4 12 1 17
-11 17 -15 1 -16 2 -1 13 9 7 19 22 23 35 9 27 26 20 19 -8z m-2010 0 c3 -14
14 -20 32 -20 15 0 24 -4 20 -10 -3 -5 -17 -10 -31 -10 -23 0 -25 -3 -22 -42
2 -36 7 -44 26 -46 27 -4 30 -22 3 -22 -42 0 -51 10 -51 61 0 42 -3 49 -20 49
-11 0 -20 4 -20 9 0 5 9 11 20 14 11 3 20 12 20 21 0 23 17 20 23 -4z m1150 0
c3 -14 14 -20 31 -20 14 0 26 -4 26 -10 0 -5 -14 -10 -31 -10 -29 0 -30 -1
-27 -42 3 -39 6 -43 31 -46 36 -4 35 -22 -1 -22 -39 0 -52 17 -52 66 0 34 -4
43 -22 49 l-23 8 23 4 c14 3 22 12 22 24 0 25 16 25 23 -1z m-1989 -20 c14 -5
26 -16 26 -25 0 -18 -4 -19 -29 -3 -32 20 -53 3 -49 -39 3 -43 33 -58 55 -27
16 22 31 9 17 -14 -13 -21 -60 -28 -80 -11 -8 7 -14 29 -14 55 0 33 5 46 22
58 27 19 21 18 52 6z m297 0 c10 -6 19 -20 19 -30 0 -26 -7 -25 -31 3 -19 22
-19 22 -34 3 -8 -11 -15 -39 -15 -63 0 -24 -4 -43 -10 -43 -6 0 -10 29 -10 66
0 51 3 65 13 61 8 -3 20 -1 28 4 18 11 17 11 40 -1z m161 -14 c13 -18 9 -36
-7 -36 -8 0 -15 6 -15 14 0 19 -25 27 -39 13 -6 -6 -11 -33 -11 -59 0 -26 -4
-48 -10 -48 -6 0 -10 29 -10 66 0 51 3 65 13 61 8 -3 20 -1 27 3 15 9 41 2 52
-14z m139 -13 c14 -38 12 -42 -37 -45 -43 -3 -44 -4 -30 -23 13 -17 18 -18 35
-7 26 15 31 15 31 -2 0 -15 -21 -26 -50 -26 -60 0 -69 114 -10 132 26 8 51 -4
61 -29z m133 21 c18 -17 23 -124 6 -124 -5 0 -10 19 -10 43 0 24 -7 52 -15 63
-15 19 -15 19 -30 0 -8 -11 -15 -39 -15 -63 0 -24 -4 -43 -10 -43 -6 0 -10 29
-10 66 0 51 3 65 13 61 8 -3 20 -1 28 4 19 12 25 11 43 -7z m444 2 c14 -9 16
-126 2 -126 -5 0 -10 25 -12 55 -2 30 -7 55 -13 55 -5 0 -11 -25 -13 -55 -4
-71 -22 -72 -22 -1 0 74 -18 82 -22 10 -2 -35 -8 -59 -15 -62 -10 -3 -13 14
-13 61 0 60 2 66 23 69 34 5 72 2 85 -6z m143 -23 c14 -38 12 -42 -37 -45 -43
-3 -44 -4 -30 -23 13 -17 18 -18 35 -7 26 15 31 15 31 -2 0 -15 -21 -26 -50
-26 -60 0 -69 114 -10 132 26 8 51 -4 61 -29z m133 21 c18 -17 23 -124 6 -124
-5 0 -10 19 -10 43 0 24 -7 52 -15 63 -15 19 -15 19 -30 0 -8 -11 -15 -39 -15
-63 0 -24 -4 -43 -10 -43 -6 0 -10 29 -10 66 0 51 3 65 13 61 8 -3 20 -1 28 4
19 12 25 11 43 -7z m714 0 c12 -8 22 -26 22 -40 0 -21 -4 -24 -40 -24 -29 0
-40 -4 -40 -15 0 -22 29 -30 52 -16 25 15 35 7 18 -14 -15 -18 -61 -20 -78 -3
-13 13 -16 86 -4 104 6 10 27 21 42 23 3 1 16 -6 28 -15z m160 2 c14 -9 16
-126 2 -126 -5 0 -10 25 -12 55 -2 30 -7 55 -13 55 -5 0 -11 -25 -13 -55 -4
-71 -22 -72 -22 -1 0 74 -18 82 -22 10 -2 -35 -8 -59 -15 -62 -10 -3 -13 14
-13 61 0 60 2 66 23 69 34 5 72 2 85 -6z m720 0 c14 -9 16 -126 2 -126 -5 0
-10 25 -12 55 -2 30 -7 55 -13 55 -5 0 -11 -25 -13 -55 -4 -71 -22 -72 -22 -1
0 74 -18 82 -22 10 -2 -35 -8 -59 -15 -62 -10 -3 -13 14 -13 61 0 60 2 66 23
69 34 5 72 2 85 -6z m130 -2 c18 -12 22 -25 22 -68 l0 -53 -46 1 c-33 1 -50 6
-58 19 -16 25 4 51 43 55 17 2 31 9 31 17 0 17 -23 25 -41 14 -19 -12 -29 -11
-29 1 0 6 10 15 23 20 30 12 30 12 55 -6z m303 -21 c15 -40 11 -103 -6 -103
-11 0 -15 13 -15 54 0 35 -5 56 -12 59 -28 9 -38 -6 -38 -60 0 -44 -3 -54 -16
-51 -8 2 -15 6 -15 11 1 4 1 31 1 61 0 54 0 55 33 58 44 5 57 -1 68 -29z m270
27 c13 -8 19 -21 19 -45 0 -19 -4 -35 -10 -35 -5 0 -10 11 -10 24 0 13 -7 30
-16 37 -14 11 -18 10 -30 -6 -18 -25 -18 -51 1 -59 8 -3 15 -11 14 -18 0 -10
-2 -10 -6 0 -7 18 -24 15 -21 -4 2 -10 -3 -19 -9 -21 -10 -4 -13 13 -13 62 0
52 3 66 13 62 8 -3 20 -1 28 4 18 11 17 11 40 -1z m147 -6 c18 -12 22 -25 22
-68 l0 -52 -37 -1 c-46 -1 -73 12 -73 35 0 26 20 42 52 42 17 0 28 5 28 14 0
18 -23 27 -41 15 -19 -12 -29 -11 -29 1 0 6 10 15 23 20 30 12 30 12 55 -6z
m-3808 -30 c0 -41 15 -74 34 -74 18 0 26 22 26 71 0 21 5 39 10 39 14 0 12
-104 -2 -118 -19 -19 -66 -15 -78 7 -13 25 -13 111 0 111 6 0 10 -16 10 -36z
m1440 0 c0 -41 15 -74 34 -74 18 0 26 22 26 71 0 21 5 39 10 39 14 0 12 -104
-2 -118 -19 -19 -66 -15 -78 7 -13 25 -13 111 0 111 6 0 10 -16 10 -36z m340
-19 c0 -48 2 -55 20 -55 11 0 20 -4 20 -10 0 -5 -25 -10 -55 -10 -30 0 -55 5
-55 10 0 6 11 10 25 10 23 0 25 4 25 45 0 38 -3 45 -19 45 -11 0 -23 5 -26 10
-4 6 8 10 29 10 l36 0 0 -55z m1440 0 c0 -48 2 -55 20 -55 11 0 20 -4 20 -10
0 -5 -25 -10 -55 -10 -30 0 -55 5 -55 10 0 6 11 10 25 10 23 0 25 4 25 45 0
38 -3 45 -19 45 -11 0 -23 5 -26 10 -4 6 8 10 29 10 l36 0 0 -55z m686 3 l18
-53 14 53 c9 32 20 52 30 52 8 0 12 -6 10 -12 -3 -7 -13 -37 -23 -66 -12 -37
-22 -52 -32 -50 -20 4 -66 128 -48 128 8 0 21 -24 31 -52z m-2966 2 c0 -5 -18
-10 -40 -10 -22 0 -40 5 -40 10 0 6 18 10 40 10 22 0 40 -4 40 -10z m720 0 c0
-5 -18 -10 -40 -10 -22 0 -40 5 -40 10 0 6 18 10 40 10 22 0 40 -4 40 -10z
m1870 0 c0 -5 -18 -10 -40 -10 -22 0 -40 5 -40 10 0 6 18 10 40 10 22 0 40 -4
40 -10z m-3772 -63 c2 -10 -3 -17 -12 -17 -10 0 -16 9 -16 21 0 24 23 21 28
-4z m2877 -9 c-9 -39 -13 -48 -24 -48 -5 0 -6 12 -4 28 7 42 11 52 23 52 8 0
9 -11 5 -32z m170 -54 c-6 -40 -4 -46 9 -41 9 4 16 2 16 -3 0 -6 -6 -10 -14
-10 -7 0 -28 -29 -46 -65 -31 -62 -32 -66 -20 -110 7 -25 16 -45 20 -45 4 0
13 20 20 45 7 25 18 45 25 45 10 0 8 -17 -8 -65 -26 -81 -48 -87 -67 -19 -13
45 -13 46 -27 23 -11 -18 -13 -19 -8 -4 19 57 25 74 39 120 l16 50 -22 -25
c-11 -14 -19 -20 -16 -15 2 6 10 25 17 43 7 17 17 32 22 32 5 0 9 6 9 13 0 6
-23 -13 -50 -43 -27 -30 -50 -50 -50 -44 0 6 9 19 20 29 11 10 29 34 41 54
l21 36 -39 -35 c-21 -19 -54 -49 -73 -65 -29 -25 -27 -22 10 20 25 27 50 53
55 57 6 5 6 8 -1 8 -7 0 -38 -19 -70 -43 -86 -63 -130 -88 -80 -46 22 19 49
41 60 50 11 9 15 18 9 22 -9 6 -31 -3 -88 -37 l-30 -18 29 26 28 27 -28 -7
c-16 -4 -26 -3 -21 1 10 11 77 35 98 35 9 0 20 8 24 18 6 16 7 16 16 0 9 -17
18 -16 64 2 34 13 80 28 89 29 4 1 5 -20 1 -45z m1025 -39 c0 -8 -5 -17 -10
-20 -6 -4 -8 -11 -5 -16 4 -5 -1 -16 -9 -25 -9 -8 -16 -25 -16 -37 0 -12 -9
-55 -19 -95 -11 -40 -15 -74 -10 -78 5 -3 9 4 9 15 0 12 5 21 10 21 17 0 11
-57 -7 -76 -12 -12 -14 -19 -6 -21 8 -3 9 -12 1 -34 -12 -35 3 -81 37 -107 12
-9 20 -23 17 -30 -2 -7 2 -21 10 -30 8 -9 19 -24 23 -32 23 -41 -27 17 -64 74
-36 54 -42 73 -47 133 -6 66 11 193 35 278 5 17 12 47 15 67 5 27 11 36 21 31
8 -3 15 -11 15 -18z m-1994 -20 c-11 -8 -27 -15 -35 -14 -9 0 -2 7 14 14 39
18 45 18 21 0z m437 -5 c4 0 5 5 2 10 -3 6 -1 10 4 10 6 0 11 -4 11 -10 0 -5
6 -10 14 -10 8 0 18 -5 22 -12 4 -6 3 -8 -3 -5 -20 12 -92 17 -98 7 -3 -5 -11
-10 -17 -10 -6 0 -1 9 12 20 16 14 27 17 34 10 5 -5 14 -10 19 -10z m-660 -5
c1 -5 -26 -15 -60 -21 -35 -6 -63 -10 -63 -8 0 2 17 13 38 24 38 20 81 23 85
5z m806 -1 c2 -2 -7 -4 -22 -4 -14 0 -29 5 -32 10 -6 10 42 4 54 -6z m38 10
c-3 -3 -12 -4 -19 -1 -8 3 -5 6 6 6 11 1 17 -2 13 -5z m1013 3 c0 -2 -14 -16
-32 -33 l-31 -29 23 33 c20 27 40 42 40 29z m-1170 -31 c0 -2 -7 -7 -16 -10
-8 -3 -12 -2 -9 4 6 10 25 14 25 6z m-2540 -51 c0 -8 -7 -15 -15 -15 -16 0
-20 12 -8 23 11 12 23 8 23 -8z m-454 -20 c-5 -20 -3 -25 14 -25 13 0 20 7 20
19 0 11 5 23 10 26 6 3 10 -4 10 -17 0 -13 5 -29 12 -36 9 -9 8 -12 -5 -12
-10 0 -17 -8 -17 -20 0 -11 5 -20 10 -20 6 0 10 -4 10 -10 0 -5 -7 -10 -15
-10 -8 0 -15 -9 -15 -19 0 -11 -4 -23 -10 -26 -6 -4 -10 5 -10 20 0 20 -4 26
-17 23 -10 -2 -19 -13 -21 -26 -2 -12 -8 -22 -14 -22 -6 0 -8 10 -4 24 4 15 1
26 -6 28 -9 3 -8 10 5 22 20 21 22 32 5 40 -9 3 -8 8 5 16 9 6 17 20 17 30 0
11 5 20 11 20 7 0 9 -10 5 -25z m4610 0 c-5 -20 -3 -25 14 -25 13 0 20 7 20
19 0 11 5 23 10 26 6 3 10 -4 10 -17 0 -13 5 -29 12 -36 9 -9 8 -12 -5 -12
-10 0 -17 -8 -17 -20 0 -11 5 -20 10 -20 6 0 10 -4 10 -10 0 -5 -7 -10 -15
-10 -8 0 -15 -9 -15 -19 0 -11 -4 -23 -10 -26 -6 -4 -10 5 -10 20 0 20 -4 26
-17 23 -10 -2 -19 -13 -21 -26 -2 -12 -8 -22 -14 -22 -6 0 -8 10 -4 24 4 15 1
26 -6 28 -9 3 -8 10 5 22 20 21 22 32 5 40 -9 3 -8 8 5 16 9 6 17 20 17 30 0
11 5 20 11 20 7 0 9 -10 5 -25z m-2769 9 c-3 -3 -12 -4 -19 -1 -8 3 -5 6 6 6
11 1 17 -2 13 -5z m2213 -9 c-7 -8 -17 -15 -23 -15 -6 0 -2 7 9 15 25 19 30
19 14 0z m-3884 -25 c5 5 15 6 24 0 19 -12 21 -121 3 -127 -10 -3 -13 12 -13
56 0 34 -4 61 -10 61 -6 0 -10 -27 -10 -60 0 -75 -18 -79 -22 -5 -2 30 -7 55
-13 55 -5 0 -11 -25 -13 -55 -4 -77 -22 -69 -22 9 0 59 2 65 23 68 12 2 27 0
33 -4 6 -4 15 -3 20 2z m148 0 c24 -9 26 -14 26 -69 l0 -59 -47 2 c-48 1 -48
1 -48 36 0 33 2 35 38 38 39 3 46 12 24 30 -8 7 -18 7 -27 2 -8 -6 -20 -10
-27 -10 -18 0 -4 28 15 33 10 3 18 5 19 6 1 0 13 -3 27 -9z m300 -6 c18 -17
23 -124 6 -124 -5 0 -10 19 -10 43 0 24 -7 52 -15 63 -15 19 -15 19 -30 0 -8
-11 -15 -39 -15 -63 0 -24 -4 -43 -10 -43 -6 0 -10 29 -10 66 0 51 3 65 13 61
8 -3 20 -1 28 4 19 12 25 11 43 -7z m298 -8 c11 -15 10 -116 -1 -116 -5 0 -11
23 -13 51 -6 59 -20 78 -43 59 -10 -8 -15 -29 -15 -61 0 -27 -4 -49 -10 -49
-6 0 -10 29 -10 66 0 51 3 65 13 61 8 -3 20 -1 27 3 15 9 41 2 52 -14z m122
14 c24 -9 26 -14 26 -69 l0 -59 -47 2 c-48 1 -48 1 -48 36 0 33 2 35 38 38 39
3 46 12 24 30 -8 7 -18 7 -27 2 -8 -6 -20 -10 -27 -10 -18 0 -4 28 15 33 10 3
18 5 19 6 1 0 13 -3 27 -9z m2608 -9 c4 -3 10 -18 13 -33 7 -26 5 -27 -40 -30
-44 -3 -45 -4 -31 -23 13 -17 18 -18 35 -7 26 15 31 15 31 -2 0 -28 -59 -35
-84 -10 -40 39 -2 133 47 118 12 -3 25 -9 29 -13z m139 9 c10 -6 19 -20 19
-30 0 -26 -7 -25 -31 3 -19 22 -19 22 -34 3 -8 -11 -15 -39 -15 -63 0 -24 -4
-43 -10 -43 -6 0 -10 29 -10 66 0 51 3 65 13 61 8 -3 20 -1 28 4 18 11 17 11
40 -1z m227 1 c10 -6 9 -11 -5 -22 -10 -7 -15 -9 -11 -5 4 5 3 15 -3 23 -13
14 -1 17 19 4z m747 -1 c5 -7 11 -8 19 -1 7 6 17 6 26 1 19 -12 21 -121 3
-127 -10 -3 -13 12 -13 56 0 34 -4 61 -10 61 -6 0 -10 -27 -10 -60 0 -75 -18
-79 -22 -5 -2 30 -7 55 -13 55 -5 0 -11 -25 -13 -55 -4 -77 -22 -69 -22 9 0
53 3 65 18 69 28 8 31 7 37 -3z m-4305 -55 c0 -52 1 -55 25 -55 14 0 25 -4 25
-10 0 -6 -27 -10 -60 -10 -33 0 -60 4 -60 10 0 6 11 10 25 10 23 0 25 4 25 45
0 38 -3 45 -20 45 -11 0 -20 5 -20 10 0 6 14 10 30 10 30 0 30 -1 30 -55z
m690 0 l16 -49 14 47 c12 44 25 65 36 55 2 -3 -6 -33 -17 -67 -26 -76 -45 -77
-70 -6 -21 60 -23 78 -7 73 6 -2 19 -26 28 -53z m-380 5 c0 -5 -18 -10 -40
-10 -22 0 -40 5 -40 10 0 6 18 10 40 10 22 0 40 -4 40 -10z m729 -47 c-6 -7
-15 -13 -20 -13 -5 0 -6 6 -3 13 3 8 11 14 19 14 11 0 12 -4 4 -14z m-1619
-20 c0 -31 -15 -61 -25 -51 -9 9 5 78 16 78 5 0 9 -12 9 -27z m4028 19 c-6
-16 -140 -132 -152 -132 -6 1 2 11 18 23 15 12 49 43 75 68 43 44 67 60 59 41z
m-2454 -17 c3 3 2 0 -3 -6 -10 -12 -31 -4 -31 13 0 7 4 7 13 -1 8 -6 17 -9 21
-6z m-84 -65 c-27 -21 -45 -26 -35 -9 6 9 41 27 55 28 3 0 -6 -8 -20 -19z
m-50 -20 c0 -5 -5 -10 -11 -10 -5 0 -7 5 -4 10 3 6 8 10 11 10 2 0 4 -4 4 -10z
m2160 -6 c0 -2 -7 -4 -15 -4 -8 0 -15 4 -15 10 0 5 7 7 15 4 8 -4 15 -8 15
-10z m-2190 -4 c0 -5 -4 -10 -10 -10 -5 0 -10 5 -10 10 0 6 5 10 10 10 6 0 10
-4 10 -10z m-60 -24 c0 -3 -4 -8 -10 -11 -5 -3 -10 -1 -10 4 0 6 5 11 10 11 6
0 10 -2 10 -4z m2695 -47 c11 -17 -1 -21 -15 -4 -8 9 -8 15 -2 15 6 0 14 -5
17 -11z m-3201 -15 c11 -4 16 -19 16 -50 0 -40 2 -44 25 -44 14 0 25 -4 25 -9
0 -5 -11 -12 -25 -15 -21 -5 -25 -12 -25 -46 0 -29 -5 -42 -19 -50 -27 -14
-41 -13 -41 5 0 8 7 15 15 15 11 0 15 12 16 43 3 79 -3 122 -17 133 -27 21 -8
32 30 18z m3177 -4 c3 -20 4 -25 13 -38 14 -22 0 -23 -19 -2 -12 13 -14 20 -5
20 10 0 10 3 0 15 -9 10 -9 15 -1 15 6 0 12 -4 12 -10z m-2881 -45 c-7 -8 -17
-15 -23 -15 -6 0 -2 7 9 15 25 19 30 19 14 0z m2866 -22 c-7 -7 -26 7 -26 19
0 6 6 6 15 -2 9 -7 13 -15 11 -17z m-3426 -9 c0 -8 -7 -14 -15 -14 -15 0 -21
21 -9 33 10 9 24 -2 24 -19z m3385 16 c3 -5 1 -10 -4 -10 -6 0 -11 5 -11 10 0
6 2 10 4 10 3 0 8 -4 11 -10z m-1530 -10 c3 -5 1 -10 -4 -10 -6 0 -11 5 -11
10 0 6 2 10 4 10 3 0 8 -4 11 -10z m100 -10 c3 -6 -1 -7 -9 -4 -18 7 -21 14
-7 14 6 0 13 -4 16 -10z m-350 -28 c-3 -3 -11 0 -18 7 -9 10 -8 11 6 5 10 -3
15 -9 12 -12z m321 -1 c16 -12 21 -22 14 -26 -6 -4 -12 -5 -13 -4 -1 2 -11 14
-21 27 -23 27 -13 29 20 3z m1269 -19 c1 -35 -6 -40 -25 -17 -10 12 -9 15 6
15 14 0 15 3 6 12 -16 16 -15 31 1 25 6 -2 12 -18 12 -35z m55 6 c0 -5 -6 -6
-12 -2 -10 6 -10 4 0 -7 17 -19 15 -29 -5 -22 -16 6 -16 4 1 -15 17 -20 17
-22 1 -38 -15 -16 -18 -16 -33 0 -15 15 -15 16 0 16 16 0 17 4 19 83 0 15 3
16 15 7 8 -7 14 -17 14 -22z m-2852 -22 c-36 -24 -83 -56 -105 -72 l-38 -28
25 28 c14 15 37 34 52 42 14 7 32 19 40 26 24 24 63 47 78 47 8 1 -15 -19 -52
-43z m3042 29 c0 -8 -4 -15 -10 -15 -5 0 -7 7 -4 15 4 8 8 15 10 15 2 0 4 -7
4 -15z m35 -3 c-3 -3 -11 0 -18 7 -9 10 -8 11 6 5 10 -3 15 -9 12 -12z m50 8
c3 -5 -1 -10 -9 -10 -9 0 -16 5 -16 10 0 6 4 10 9 10 6 0 13 -4 16 -10z m-385
-11 c0 -5 -4 -7 -10 -4 -5 3 -10 -2 -10 -12 0 -15 -2 -16 -10 -3 -6 9 -5 17 3
22 17 11 27 10 27 -3z m192 4 c-6 -3 -9 -9 -6 -15 4 -6 1 -9 -6 -6 -23 7 -21
24 2 25 13 0 17 -1 10 -4z m-254 -28 c-3 -3 -9 2 -12 12 -6 14 -5 15 5 6 7 -7
10 -15 7 -18z m-1387 -3 c-7 -2 -18 1 -23 6 -8 8 -4 9 13 5 13 -4 18 -8 10
-11z m209 -12 c0 -15 -5 -12 -26 11 -19 22 -19 22 4 10 12 -6 22 -16 22 -21z
m1151 8 c11 -21 11 -22 -4 -9 -10 7 -17 17 -17 22 0 15 9 10 21 -13z m244 11
c11 -17 -1 -21 -15 -4 -8 9 -8 15 -2 15 6 0 14 -5 17 -11z m223 -1 c7 -7 12
-16 12 -20 0 -15 -15 -8 -28 12 -13 22 -3 27 16 8z m-498 -31 c0 -5 -4 -5 -10
-2 -5 3 -10 14 -10 23 0 15 2 15 10 2 5 -8 10 -19 10 -23z m-3025 -9 c-9 -40
-13 -48 -26 -48 -5 0 -7 12 -3 28 10 45 13 52 24 52 8 0 9 -11 5 -32z m1636
14 c-7 -2 -18 1 -23 6 -8 8 -4 9 13 5 13 -4 18 -8 10 -11z m373 4 c20 -10 23
-15 12 -19 -8 -3 -22 3 -32 14 -20 23 -16 24 20 5z m1161 3 c11 -17 -1 -21
-15 -4 -8 9 -8 15 -2 15 6 0 14 -5 17 -11z m115 -10 c0 -6 -4 -7 -10 -4 -5 3
-10 11 -10 16 0 6 5 7 10 4 6 -3 10 -11 10 -16z m98 -15 c-4 -3 -12 5 -18 18
-12 22 -12 22 6 6 10 -10 15 -20 12 -24z m112 15 c0 -6 -4 -7 -10 -4 -5 3 -10
11 -10 16 0 6 5 7 10 4 6 -3 10 -11 10 -16z m-1339 -6 c13 -16 12 -17 -3 -4
-17 13 -22 21 -14 21 2 0 10 -8 17 -17z m837 -19 c-4 -3 -12 5 -18 18 -12 22
-12 22 6 6 10 -10 15 -20 12 -24z m145 18 c16 -18 16 -19 -13 -19 -16 0 -31 6
-34 13 -3 8 2 10 16 6 14 -3 19 -1 14 6 -11 18 -1 14 17 -6z m327 2 c0 -8 -4
-12 -10 -9 -5 3 -10 10 -10 16 0 5 5 9 10 9 6 0 10 -7 10 -16z m-1695 -12 c-3
-3 -11 0 -18 7 -9 10 -8 11 6 5 10 -3 15 -9 12 -12z m193 -1 c12 -10 22 -24
22 -31 0 -8 -10 -4 -25 10 -38 36 -35 54 3 21z m142 -2 c0 -6 -4 -7 -10 -4 -5
3 -10 11 -10 16 0 6 5 7 10 4 6 -3 10 -11 10 -16z m180 11 c0 -5 -2 -10 -4
-10 -3 0 -8 5 -11 10 -3 6 -1 10 4 10 6 0 11 -4 11 -10z m287 -36 c-4 -4 -14
1 -22 12 -22 29 -18 41 7 17 12 -13 19 -26 15 -29z m314 29 c13 -16 12 -17 -3
-4 -17 13 -22 21 -14 21 2 0 10 -8 17 -17z m469 -4 c0 -6 -4 -7 -10 -4 -5 3
-10 11 -10 16 0 6 5 7 10 4 6 -3 10 -11 10 -16z m-275 -37 c-6 -7 -34 29 -34
43 0 6 9 -1 20 -14 11 -13 17 -26 14 -29z m-1375 23 c20 -24 6 -28 -15 -5 -10
11 -13 20 -8 20 6 0 16 -7 23 -15z m204 4 c-2 -4 1 -9 7 -11 7 -2 10 -10 8
-17 -3 -8 -12 -5 -26 11 -21 22 -21 24 -3 24 10 0 17 -3 14 -7z m160 -4 c11
-8 16 -18 12 -22 -3 -4 -16 3 -28 15 -25 25 -13 29 16 7z m186 5 c8 -5 12 -11
9 -14 -3 -3 -14 1 -25 9 -21 16 -8 20 16 5z m158 -15 c2 -2 -1 -6 -6 -9 -5 -3
-18 4 -28 16 -19 21 -19 21 6 8 14 -7 26 -14 28 -15z m352 -7 c0 -12 -6 -9
-26 13 -19 22 -19 22 4 8 12 -8 22 -17 22 -21z m46 5 c-7 -7 -26 7 -26 19 0 6
6 6 15 -2 9 -7 13 -15 11 -17z m44 12 c20 -24 6 -28 -15 -5 -10 11 -13 20 -8
20 6 0 16 -7 23 -15z m132 -30 c11 -20 11 -20 -11 -1 -11 11 -21 26 -21 35 0
14 2 14 10 1 6 -8 16 -24 22 -35z m338 24 c0 -6 -4 -7 -10 -4 -5 3 -10 11 -10
16 0 6 5 7 10 4 6 -3 10 -11 10 -16z m224 -30 c6 -1 14 -1 19 0 4 0 7 -11 7
-26 1 -36 19 -58 49 -60 13 -1 26 -4 29 -8 13 -13 -19 -25 -97 -34 -46 -6 -95
-18 -108 -26 -25 -17 -30 -27 -10 -24 34 4 77 -2 77 -12 0 -5 -4 -8 -9 -4 -6
3 -11 -17 -13 -46 -3 -57 -21 -78 -54 -64 -17 7 -17 8 6 14 21 6 26 14 28 48
2 31 -1 42 -15 47 -24 10 -46 -22 -40 -59 5 -34 0 -55 -14 -55 -5 0 -9 27 -9
60 0 56 -1 60 -19 51 -10 -6 -21 -26 -24 -47 -7 -45 -23 -64 -52 -64 -30 0
-51 27 -58 75 -4 24 -3 32 2 21 9 -22 20 -10 16 17 -2 9 1 17 6 17 5 0 9 -7 9
-15 0 -8 5 -15 10 -15 6 0 10 9 10 19 0 26 17 36 23 14 4 -17 4 -17 12 0 5 12
2 24 -8 34 -15 16 -42 9 -32 -8 4 -5 1 -9 -4 -9 -13 0 -13 2 -1 35 7 18 7 33
0 46 -7 13 -7 19 -1 19 6 0 13 -11 17 -25 4 -14 9 -24 12 -21 3 3 15 -16 28
-42 21 -42 23 -44 24 -19 0 21 5 27 23 28 12 0 16 3 10 6 -7 2 -13 9 -13 15 0
6 6 8 14 5 9 -4 16 3 20 16 5 18 8 20 16 7 8 -13 10 -12 11 5 1 11 1 23 0 28
0 4 4 7 10 7 13 0 34 21 40 39 4 11 8 10 22 -3 15 -16 17 -16 17 -1 0 8 -8 19
-17 22 -19 7 -33 22 -33 37 0 5 12 -3 26 -18 15 -14 32 -27 38 -27z m-14 41
c0 -5 -4 -10 -10 -10 -5 0 -10 5 -10 10 0 6 5 10 10 10 6 0 10 -4 10 -10z
m-1001 -34 c0 -14 -2 -16 -6 -6 -3 8 -10 21 -16 28 -7 9 -6 11 7 6 9 -3 16
-16 15 -28z m659 22 c7 -7 12 -18 12 -26 0 -12 -3 -12 -15 -2 -12 10 -15 9
-15 -5 0 -22 -19 -15 -39 14 -15 23 -14 23 7 17 13 -5 22 -3 22 3 0 14 13 14
28 -1z m112 -25 c0 -20 -16 -8 -23 17 -4 17 -3 19 9 9 8 -6 14 -18 14 -26z
m120 16 c0 -6 -4 -7 -10 -4 -5 3 -10 11 -10 16 0 6 5 7 10 4 6 -3 10 -11 10
-16z m-2015 1 c3 -6 -1 -7 -9 -4 -18 7 -21 14 -7 14 6 0 13 -4 16 -10z m139
-19 c-2 -3 -12 3 -22 13 -16 17 -16 18 5 5 12 -7 20 -15 17 -18z m213 23 c-3
-3 -12 -4 -19 -1 -8 3 -5 6 6 6 11 1 17 -2 13 -5z m101 -19 c2 -2 -1 -6 -6 -9
-5 -3 -18 4 -28 16 -19 21 -19 21 6 8 14 -7 26 -14 28 -15z m192 -22 c0 -6 9
-10 20 -8 11 2 20 0 20 -6 0 -5 5 -9 11 -9 6 0 8 9 4 20 -7 23 7 27 24 6 8
-10 9 -16 2 -21 -12 -7 6 -42 27 -50 10 -3 10 0 2 16 -6 11 -8 29 -5 40 4 13
0 28 -12 41 -18 20 -18 21 3 10 11 -6 26 -18 34 -26 7 -9 21 -16 31 -16 11 0
18 -5 17 -11 -2 -6 3 -14 11 -17 10 -3 13 1 9 15 -5 20 -4 20 22 5 28 -16 31
-48 3 -38 -8 3 -11 1 -8 -4 3 -6 13 -10 22 -10 9 0 14 -3 10 -6 -5 -6 12 -25
46 -53 28 -23 20 5 -14 43 -17 20 -28 40 -24 45 3 6 -2 22 -11 36 -9 14 -12
25 -6 25 15 0 43 -30 37 -40 -3 -5 -1 -11 5 -15 5 -3 10 -2 10 3 0 5 7 9 15 9
8 0 15 -6 15 -13 0 -6 7 -14 15 -18 9 -3 12 -12 9 -23 -4 -11 -3 -14 3 -6 14
20 53 -21 53 -56 0 -17 5 -31 11 -31 6 0 9 9 6 20 -3 11 -2 20 1 20 16 -1 52
-40 52 -57 1 -17 1 -17 11 -1 7 13 5 24 -7 43 -19 30 -6 33 23 5 15 -13 20
-28 17 -45 -2 -14 0 -25 5 -25 6 0 8 9 6 20 -2 11 2 20 8 20 8 0 9 3 1 8 -12
8 -26 52 -16 52 21 -1 42 -31 42 -58 0 -17 6 -32 13 -35 9 -3 7 -10 -5 -23
-17 -18 -18 -18 -19 1 0 15 -4 13 -14 -10 l-13 -30 -11 29 c-7 16 -14 26 -17
23 -7 -6 15 -49 30 -59 6 -4 17 -1 25 5 12 10 13 9 2 -11 -9 -17 -10 -31 -1
-56 7 -23 7 -41 0 -60 -13 -34 -13 -36 1 -36 7 0 17 -8 24 -17 7 -9 27 -18 46
-19 19 -2 49 -5 67 -7 19 -3 32 0 32 7 0 6 11 -6 25 -26 27 -39 31 -58 15 -58
-5 0 -10 8 -10 18 0 10 -5 23 -10 28 -15 15 -68 5 -75 -14 -3 -9 -3 -13 1 -9
4 4 13 -1 21 -11 10 -12 16 -14 19 -4 7 15 24 6 24 -13 0 -9 -6 -12 -15 -9 -9
4 -15 0 -15 -10 0 -24 -19 -19 -30 8 -5 13 -14 27 -20 31 -5 3 -8 10 -5 15 8
13 -33 -1 -46 -16 -8 -10 -4 -21 16 -49 15 -19 30 -35 33 -35 3 0 1 5 -6 12
-7 7 -12 28 -12 48 1 33 2 34 15 16 8 -11 15 -28 15 -39 0 -10 9 -21 20 -24
11 -3 20 -14 20 -24 0 -11 5 -19 11 -19 7 0 10 12 7 30 -3 17 -1 30 4 30 4 0
8 -14 8 -31 0 -17 4 -28 10 -24 6 3 10 17 10 31 0 13 4 24 9 24 4 0 6 -12 3
-26 -4 -24 -3 -25 16 -15 29 16 32 14 32 -16 -1 -26 -2 -27 -14 -10 -14 18
-15 17 -21 -4 -5 -14 -2 -25 6 -30 16 -10 8 -12 -15 -3 -9 3 -16 13 -16 22 0
8 -3 13 -6 9 -4 -3 -2 -19 4 -36 10 -29 8 -32 -56 -90 -37 -34 -58 -58 -47
-55 13 3 4 -9 -24 -35 -24 -22 -47 -38 -52 -35 -5 3 -12 -2 -15 -10 -3 -9 -12
-16 -20 -16 -8 0 -31 -9 -51 -20 -21 -11 -46 -20 -55 -20 -32 0 -125 -47 -130
-66 -3 -12 -22 -24 -52 -33 -41 -12 -61 -29 -81 -68 -1 -2 -16 2 -34 7 -22 6
-40 6 -52 -1 -25 -13 -24 -21 6 -40 25 -15 25 -15 -20 -17 -25 -1 -45 3 -45 8
0 6 4 10 10 10 5 0 7 6 4 14 -4 12 -12 13 -32 5 -15 -6 -29 -11 -32 -11 -3 0
-16 -5 -30 -10 -68 -28 -123 -27 -106 1 4 6 12 9 17 6 15 -10 10 5 -11 32
l-20 26 0 -33 c0 -32 -23 -70 -42 -70 -4 0 -8 7 -8 16 0 8 -4 13 -9 9 -5 -3
-12 4 -16 15 -4 11 -11 18 -16 15 -5 -4 -4 -14 3 -25 9 -14 9 -22 -1 -34 -8
-9 -19 -16 -25 -16 -8 0 -7 3 1 8 7 4 9 13 4 21 -7 11 -12 10 -27 -5 -23 -23
-80 -64 -88 -64 -3 0 -6 5 -6 11 0 5 5 7 10 4 6 -3 13 2 17 12 9 22 43 52 61
53 9 0 11 7 7 19 -3 11 -1 22 5 26 5 3 10 14 10 23 0 11 8 18 23 19 12 0 16
-1 10 -4 -7 -3 -13 -9 -13 -15 0 -6 9 -3 19 6 18 16 20 16 29 1 7 -14 11 -13
21 12 7 17 11 34 10 39 -4 22 2 35 12 28 17 -10 2 47 -16 65 -21 21 -26 10
-15 -29 7 -25 6 -36 -3 -42 -8 -5 -15 6 -21 38 l-8 45 -14 -27 c-16 -31 -18
-54 -4 -54 6 0 10 -11 10 -25 0 -14 -5 -25 -11 -25 -6 0 -8 9 -4 20 4 11 2 20
-4 20 -6 0 -11 -7 -11 -15 0 -8 -4 -15 -8 -15 -18 0 -19 12 -4 43 11 23 12 32
4 35 -7 2 -18 9 -25 16 -7 7 -25 16 -40 20 -23 5 -29 3 -39 -21 -9 -22 -12
-24 -15 -10 -3 9 -13 17 -24 17 -11 0 -19 -7 -19 -17 -1 -17 -1 -17 -11 0 -6
9 -14 15 -19 12 -12 -7 -51 13 -66 33 -6 8 -16 12 -22 8 -7 -4 -12 -2 -12 4 0
6 -4 8 -10 5 -5 -3 -10 -2 -10 4 0 5 -10 13 -22 17 -13 4 -23 6 -23 4 0 -2
-10 2 -22 9 -19 9 -23 9 -23 -2 0 -9 10 -14 28 -13 24 1 27 -3 30 -34 l2 -35
-21 28 c-11 15 -27 27 -35 27 -8 0 -14 5 -14 11 0 5 -4 7 -10 4 -6 -4 -5 -11
3 -19 6 -8 16 -12 21 -9 4 3 5 -5 1 -17 -5 -14 -3 -20 3 -16 15 9 42 -22 42
-49 0 -17 5 -22 18 -20 9 2 19 4 22 4 3 1 -1 5 -9 10 -12 8 -12 12 2 26 16 15
18 15 28 -9 16 -35 39 -42 39 -11 0 17 5 23 19 22 19 -1 18 -18 -2 -45 -18
-23 1 -24 22 -1 21 22 26 17 22 -18 -3 -21 21 -14 26 7 6 24 29 21 27 -3 -1
-13 2 -14 16 -7 13 7 21 5 30 -5 6 -7 18 -11 27 -8 13 5 13 2 -1 -26 -12 -23
-14 -36 -7 -49 9 -15 10 -13 11 9 0 14 3 29 7 33 11 11 14 46 4 46 -28 0 -60
21 -55 35 6 14 8 14 18 -1 7 -9 21 -15 32 -12 18 3 18 4 -1 24 -11 11 -21 26
-22 32 -4 17 14 15 21 -3 3 -8 13 -15 21 -15 13 0 15 -6 10 -29 -3 -17 -1 -38
6 -48 10 -16 7 -26 -14 -59 -34 -52 -78 -103 -71 -81 8 24 -4 21 -27 -5 -22
-27 -25 -12 -4 16 20 27 19 35 -5 29 -14 -4 -20 -14 -20 -34 0 -29 -30 -69
-52 -69 -6 0 -2 9 10 20 22 21 31 47 12 35 -5 -3 -10 -2 -10 4 0 16 22 61 30
61 4 0 10 9 13 20 8 30 -10 24 -28 -10 -19 -37 -30 -38 -31 -5 -1 14 2 25 6
25 4 0 10 9 13 20 6 25 -1 26 -19 3 -8 -11 -13 -13 -14 -5 0 15 -30 16 -30 1
0 -5 5 -7 10 -4 19 12 21 -24 3 -51 l-18 -28 -5 34 -6 35 -18 -38 c-23 -47
-36 -55 -36 -23 0 37 21 80 32 64 5 -8 6 -3 2 13 -3 15 -1 30 5 33 17 11 13
36 -4 30 -8 -4 -15 -14 -15 -23 0 -19 -56 -127 -71 -136 -5 -4 -9 0 -9 9 0 8
-3 22 -7 32 -4 11 -3 15 5 10 6 -4 12 3 14 16 2 13 8 22 14 21 5 -1 10 14 10
33 0 19 -4 34 -8 34 -4 0 -8 6 -8 14 0 8 -7 17 -16 20 -9 3 -14 12 -12 18 3 7
-1 18 -8 25 -7 7 -14 18 -17 25 -3 10 -8 10 -16 2 -9 -8 -8 -14 4 -24 19 -16
20 -64 0 -80 -8 -7 -15 -22 -15 -34 0 -21 -17 -46 -31 -46 -4 0 -5 9 -2 20 3
13 0 20 -8 20 -10 0 -10 3 -1 12 7 7 12 22 12 34 0 14 6 21 16 20 9 0 19 5 22
13 2 8 0 11 -5 8 -5 -3 -16 3 -23 14 -8 10 -24 19 -35 18 -19 0 -19 -1 2 -9
19 -8 21 -13 13 -41 -12 -41 -20 -48 -20 -18 0 18 -6 25 -20 26 -25 2 -25 -12
-1 -44 22 -27 20 -35 -21 -113 -14 -25 -29 -44 -34 -43 -13 3 -18 43 -5 43 6
0 11 8 11 18 0 15 -2 15 -11 2 -8 -12 -9 -10 -5 10 3 14 6 36 6 50 0 20 2 22
10 10 5 -8 7 -23 4 -32 -7 -25 22 -23 36 1 6 13 7 28 1 43 -6 13 -10 17 -10
11 -1 -7 -6 -13 -12 -13 -6 0 -8 9 -4 20 3 11 2 28 -4 37 -9 16 -10 16 -11 -4
0 -12 -4 -25 -10 -28 -5 -3 -10 -1 -10 4 0 6 -8 11 -17 11 -17 1 -17 1 0 14
11 8 15 20 11 31 -7 16 -5 16 25 1 30 -16 31 -16 31 5 0 18 -2 19 -15 9 -12
-10 -15 -10 -15 4 0 31 -35 16 -52 -22 -25 -53 -33 -92 -19 -92 6 0 14 7 17
15 4 8 10 12 15 9 12 -7 12 -74 0 -74 -5 0 -4 -13 2 -30 9 -23 8 -33 -1 -42
-9 -9 -12 -5 -14 23 -1 18 -1 44 0 57 0 12 -3 22 -9 22 -5 0 -9 -25 -9 -55 0
-30 -4 -55 -10 -55 -5 0 -10 -4 -10 -10 0 -5 7 -10 15 -10 8 0 15 -5 15 -12 0
-6 9 -3 20 7 20 18 20 17 20 -11 0 -17 -5 -35 -11 -41 -6 -6 -10 -16 -7 -23 2
-6 16 14 32 45 31 58 46 69 46 34 0 -28 -19 -61 -31 -54 -5 4 -9 -3 -9 -15 0
-12 -5 -30 -10 -41 -10 -18 -12 -18 -27 -4 -11 12 -19 13 -28 5 -10 -8 -15 -8
-20 0 -9 14 -45 -16 -45 -37 0 -9 -8 -13 -22 -11 -14 2 -22 -2 -20 -9 1 -7 -2
-13 -8 -13 -5 0 -10 6 -10 13 0 6 -5 4 -11 -5 -5 -10 -18 -18 -28 -18 -10 0
-21 -3 -25 -7 -3 -4 -13 -8 -20 -9 -7 -1 -29 -9 -47 -18 -43 -20 -149 -30
-149 -14 0 6 -8 4 -19 -6 -11 -10 -28 -17 -38 -16 -10 1 -20 1 -23 0 -17 -6
-48 -5 -44 2 3 4 -1 8 -10 8 -8 0 -16 5 -18 11 -3 8 -29 11 -73 10 -39 -1
-114 -1 -167 -1 -54 1 -126 -4 -160 -10 -124 -22 -174 -32 -221 -46 -37 -10
-54 -11 -69 -3 -26 14 -92 6 -135 -16 -21 -10 -41 -14 -55 -9 -13 4 -38 8 -55
8 -25 1 -33 -2 -33 -16 0 -24 -13 -29 -59 -22 -40 6 -48 24 -10 24 10 0 19 4
19 10 0 5 18 15 40 21 26 8 37 16 31 22 -13 13 9 35 29 30 10 -3 21 6 29 21 8
14 19 24 25 23 6 -1 10 8 9 20 -2 15 2 21 11 17 8 -3 17 -1 21 5 3 6 16 11 29
11 12 0 27 5 32 10 14 14 61 22 68 12 3 -5 29 -10 59 -11 29 -1 69 -6 88 -11
18 -6 36 -10 39 -10 11 1 -46 29 -58 30 -8 0 -28 7 -45 14 -18 8 -48 19 -67
25 l-35 9 43 1 c23 1 42 6 42 12 0 5 4 7 10 4 6 -3 10 -1 10 4 0 6 0 14 1 18
0 3 -14 12 -31 19 -18 8 -28 9 -24 3 4 -7 -1 -10 -11 -7 -10 1 -20 9 -23 16
-3 9 18 12 83 12 75 0 92 -3 133 -27 49 -27 48 -22 -2 15 l-29 22 47 0 c36 0
46 4 46 16 0 13 -6 15 -28 9 -49 -14 -282 -17 -298 -4 -16 13 -19 39 -3 39 5
0 8 -4 5 -8 -3 -5 5 -8 17 -8 28 1 45 25 26 37 -9 5 1 7 24 5 27 -3 40 0 44
11 4 10 14 13 29 9 18 -5 22 -3 18 8 -3 8 3 19 15 25 25 14 34 14 26 1 -3 -5
0 -10 8 -10 7 0 20 11 27 25 8 14 19 24 25 21 7 -2 12 2 12 10 0 12 -10 16
-34 13 -15 -2 -24 33 -11 48 11 14 13 13 18 -8 l6 -24 18 22 c11 12 25 19 34
16 11 -5 13 -1 8 14 -4 12 -1 25 7 32 8 6 14 24 15 41 1 53 20 62 42 20 8 -15
4 -25 -16 -50 -15 -17 -23 -30 -18 -29 22 4 44 -2 44 -11 0 -6 -3 -9 -7 -9
-21 3 -33 -2 -33 -16 0 -22 38 -18 45 5 3 11 11 20 16 20 6 0 8 -4 4 -9 -3 -5
-1 -12 4 -15 5 -3 11 3 14 14 4 15 0 20 -16 21 -21 0 -21 1 -2 8 18 7 19 8 0
18 -18 10 -18 11 1 21 19 10 26 12 45 12 5 0 7 5 4 10 -3 6 -2 10 3 10 6 0 8
9 5 20 -4 14 2 22 21 30 14 5 26 14 26 20 0 5 3 9 7 9 21 -3 26 2 13 12 -12 8
-10 10 10 5 23 -5 24 -4 6 9 -10 7 -15 18 -11 24 3 7 0 8 -9 5 -9 -3 -16 -10
-16 -15 0 -5 -5 -9 -11 -9 -5 0 -7 5 -4 10 4 6 -5 10 -20 10 -17 0 -24 -4 -19
-12 4 -6 -1 -17 -10 -24 -9 -6 -18 -21 -19 -32 0 -11 -5 -18 -11 -15 -5 4 -7
0 -4 -8 3 -8 0 -19 -7 -25 -9 -9 -15 -7 -23 7 -8 13 -9 19 -2 19 6 0 10 6 8
13 -4 17 81 119 93 111 5 -3 9 -2 8 3 -3 19 2 33 12 33 5 0 7 -6 3 -12 -6 -9
-3 -9 9 0 9 8 19 22 22 33 4 11 16 19 28 19 15 0 18 3 9 9 -10 6 -9 11 4 22
11 8 15 9 11 2 -5 -8 2 -7 20 2 15 8 38 15 50 15 12 0 24 6 27 13 3 6 4 0 2
-15 -3 -30 8 -38 18 -13 3 8 12 15 21 15 8 0 15 4 15 9 0 5 11 11 25 13 21 4
25 1 25 -17 0 -12 -7 -28 -15 -35 -8 -7 -15 -20 -15 -28 0 -13 4 -11 15 5 10
14 22 20 33 16 14 -5 15 -3 5 8 -19 20 -16 32 7 26 15 -4 20 0 21 16 0 12 3
17 5 11 5 -13 54 -6 54 7 0 18 16 9 17 -10 1 -13 -4 -17 -16 -14 -10 2 -23 -2
-29 -10 -10 -12 -7 -14 22 -12 30 3 34 0 44 -32 8 -26 8 -42 1 -56 -8 -13 -8
-17 -1 -13 6 3 13 2 17 -4 3 -5 10 -10 16 -10 13 0 6 28 -22 99 -11 27 1 41
38 41 12 0 24 8 27 18 4 10 13 19 22 19 8 0 13 -6 10 -14 -3 -7 0 -13 8 -13
19 0 15 29 -6 36 -10 3 -18 10 -18 15 0 6 6 7 13 2 20 -12 39 -12 34 1 -3 7 9
16 29 22 31 10 34 9 34 -9 0 -20 0 -21 14 -1 13 17 17 17 37 6 20 -13 21 -12
15 3 -4 13 -2 16 9 12 8 -4 17 -2 20 3 4 6 -3 10 -15 10 -12 0 -19 4 -15 10 3
5 12 7 20 4 10 -4 12 0 8 17 -4 15 -3 20 5 15 7 -4 12 -14 12 -22 0 -8 7 -14
15 -14 8 0 15 6 15 14 0 7 8 20 17 27 11 10 14 10 9 2 -4 -7 -2 -13 3 -13 6 0
11 5 11 12 0 6 6 4 13 -7 8 -10 19 -15 26 -11 9 6 9 11 0 22 -6 8 -8 14 -3 14
5 0 0 7 -10 15 -11 8 -16 15 -10 15 5 0 -4 7 -20 15 -36 19 -35 19 -29 -5 3
-11 0 -20 -6 -20 -5 0 -8 7 -5 15 4 10 0 15 -11 15 -9 0 -13 5 -10 10 3 6 1
10 -5 10 -7 0 -10 -7 -7 -15 4 -8 2 -17 -3 -20 -4 -3 -10 0 -12 6 -5 15 -68
20 -68 6 0 -6 -3 -7 -6 -4 -4 4 -1 13 6 22 10 12 10 15 -1 16 -10 0 -10 2 -2
5 6 3 23 -2 38 -12 22 -14 25 -15 19 -1 -5 14 0 15 33 10 64 -10 113 -40 120
-73 8 -42 31 -60 48 -37 7 9 21 17 32 17 10 0 25 6 32 13 11 10 12 7 6 -13 -4
-14 -18 -45 -30 -70 -26 -52 -38 -171 -18 -177 7 -3 13 10 15 34 2 29 7 37 19
35 9 -1 20 5 23 14 4 12 2 15 -9 10 -21 -8 -19 10 4 26 10 7 28 30 40 52 19
33 20 42 9 72 -13 35 -4 59 13 34 11 -15 9 -5 -7 52 -6 21 -6 21 11 4 10 -9
24 -15 32 -11 11 4 13 1 9 -11 -4 -12 -2 -15 9 -11 8 4 17 2 20 -3 4 -6 11
-10 17 -10 7 0 2 9 -10 20 -26 24 -32 71 -7 50 25 -21 26 -6 2 28 -12 17 -29
32 -38 32 -18 0 -45 27 -37 36 3 3 13 -2 21 -11 9 -8 23 -15 31 -15 9 0 16 -4
16 -10 0 -5 6 -10 14 -10 8 0 22 -7 30 -16 9 -8 16 -13 16 -9 0 3 9 1 20 -5
27 -14 25 -5 -6 35 -30 40 -61 57 -43 24 20 -39 3 -28 -33 21 -20 27 -30 46
-22 43 8 -3 14 -9 14 -15 0 -5 8 -7 19 -3 12 4 26 -3 42 -20 47 -49 55 -21 9
32 -16 18 -30 39 -30 46 0 6 7 1 16 -11 8 -12 24 -22 34 -22 10 0 22 -4 25
-10 12 -20 27 -10 23 15 -3 15 -1 25 7 25 22 0 25 -13 10 -36 -15 -23 -14 -24
35 -49 27 -14 50 -21 50 -15 0 5 -4 10 -9 10 -5 0 -13 9 -16 20 -3 11 -13 27
-22 35 -8 9 -13 18 -10 21 3 3 16 -6 28 -20 12 -14 30 -26 39 -26 9 0 21 -5
28 -12 9 -9 12 -7 12 10 0 12 -4 22 -9 22 -5 0 -11 9 -14 21 -4 13 -12 19 -24
18 -20 -4 -43 8 -43 21 0 15 60 -11 86 -37 26 -26 44 -23 44 8 0 22 11 24 29
7 10 -11 11 -9 5 5 -5 13 -14 17 -36 13 -36 -6 -58 2 -58 19 0 14 29 29 38 20
3 -3 0 -5 -7 -5 -7 0 -9 -4 -6 -10 3 -5 15 -10 27 -10 15 0 18 3 11 13 -15 19
-24 49 -13 42 10 -6 14 8 10 35 -2 12 2 12 17 -3 11 -9 23 -14 27 -10 4 4 4 0
0 -10 -5 -14 -9 -15 -20 -6 -11 9 -14 9 -14 0 0 -6 12 -16 27 -22 17 -6 23
-13 16 -17 -8 -5 -7 -15 2 -37 l13 -30 1 29 c1 23 4 26 14 17 8 -6 16 -8 19
-5 3 3 18 -11 33 -30 15 -20 31 -34 35 -31 5 3 11 0 13 -5 3 -6 4 -5 3 2 -2 7
-9 12 -15 11 -6 -2 -11 5 -11 15 0 24 -34 60 -64 68 -13 3 -26 15 -29 25 -5
17 -3 18 9 8 33 -27 104 -57 104 -44 0 7 -6 15 -14 18 -8 3 -20 16 -27 29 -12
23 -12 23 9 5 11 -10 27 -20 36 -21 8 -1 24 -10 36 -21 18 -16 20 -16 20 -2 0
10 -4 17 -10 17 -5 0 -17 15 -26 33 -17 32 -16 32 3 15 23 -21 37 -24 27 -5
-4 6 7 -1 24 -17 42 -39 52 -27 13 13 -39 40 -39 45 -1 23 16 -9 30 -22 30
-29z m169 33 c7 -8 8 -17 3 -19 -4 -3 -13 3 -20 14 -14 22 0 26 17 5z m131 -1
c7 -8 8 -15 2 -15 -5 0 -15 7 -22 15 -7 8 -8 15 -2 15 5 0 15 -7 22 -15z m320
-22 c0 -12 -4 -11 -20 7 -11 13 -20 25 -20 27 0 2 9 -1 20 -7 11 -6 20 -18 20
-27z m50 10 c0 -13 -3 -13 -15 -3 -8 7 -15 16 -15 21 0 5 7 6 15 3 8 -4 15
-13 15 -21z m320 8 c13 -25 13 -34 0 -26 -16 10 -32 45 -21 45 6 0 15 -9 21
-19z m-1318 -30 c-5 -4 -12 -14 -15 -25 -6 -15 -10 -16 -22 -6 -13 11 -14 10
-9 -5 5 -13 4 -16 -5 -11 -6 4 -9 16 -6 27 5 13 -1 26 -17 38 -22 19 -22 19
29 3 29 -9 49 -18 45 -21z m768 18 c0 -6 -4 -7 -10 -4 -5 3 -10 11 -10 16 0 6
5 7 10 4 6 -3 10 -11 10 -16z m628 9 c7 -7 12 -21 12 -32 -1 -20 -1 -20 -20 3
-29 34 -22 59 8 29z m-198 -44 c0 -8 -6 -11 -15 -8 -8 4 -12 10 -9 15 3 5 0 9
-5 9 -6 0 -11 7 -11 17 0 14 2 14 20 -2 11 -10 20 -24 20 -31z m40 13 c0 -20
0 -20 -15 -1 -19 25 -19 35 0 28 8 -4 15 -16 15 -27z m410 0 c0 -5 -4 -5 -10
-2 -5 3 -10 14 -10 23 0 15 2 15 10 2 5 -8 10 -19 10 -23z m110 23 c0 -5 -4
-10 -9 -10 -6 0 -13 5 -16 10 -3 6 1 10 9 10 9 0 16 -4 16 -10z m170 -25 c0
-5 -5 -3 -10 5 -5 8 -10 20 -10 25 0 6 5 3 10 -5 5 -8 10 -19 10 -25z m-3520
-102 c-68 -71 -128 -132 -133 -138 -5 -5 -3 2 4 17 6 15 9 34 6 42 -10 25 -36
19 -49 -10 -10 -21 -9 -31 4 -53 15 -27 14 -29 -29 -82 -57 -68 -53 -64 -53
-51 0 6 14 27 31 47 31 35 32 39 32 128 -1 51 1 80 4 65 4 -24 7 -26 38 -21
27 4 36 2 41 -11 6 -16 8 -16 25 0 11 9 19 21 19 26 0 12 162 168 174 168 5 0
-46 -57 -114 -127z m2340 76 c0 -5 -6 -9 -12 -9 -7 -1 -2 -10 11 -21 14 -11
26 -30 28 -42 3 -16 -4 -12 -25 17 -17 23 -27 47 -24 58 2 10 -1 18 -7 18 -6
0 -11 8 -11 18 1 14 4 13 20 -7 11 -13 20 -27 20 -32z m120 14 c0 -9 -1 -14
-3 -12 -1 2 -11 15 -22 28 l-20 24 23 -12 c12 -6 22 -19 22 -28z m40 27 c0 -5
-2 -10 -4 -10 -3 0 -8 5 -11 10 -3 6 -1 10 4 10 6 0 11 -4 11 -10z m410 -37
c0 -7 -4 -13 -10 -13 -5 0 -10 -7 -10 -16 0 -9 -6 -14 -12 -11 -7 2 -13 8 -13
13 0 5 -4 15 -9 23 -7 11 -5 13 8 8 15 -6 17 -3 12 18 -6 24 -6 25 14 8 11
-10 20 -23 20 -30z m230 37 c0 -5 -4 -10 -10 -10 -5 0 -10 5 -10 10 0 6 5 10
10 10 6 0 10 -4 10 -10z m180 -11 c0 -6 -4 -7 -10 -4 -5 3 -10 11 -10 16 0 6
5 7 10 4 6 -3 10 -11 10 -16z m-1965 -7 c-3 -3 -11 0 -18 7 -9 10 -8 11 6 5
10 -3 15 -9 12 -12z m935 -24 c0 -14 -19 1 -31 25 -12 22 -12 22 10 3 11 -11
21 -23 21 -28z m404 17 c2 -7 -2 -16 -10 -19 -8 -3 -12 -2 -9 3 3 5 1 12 -5
16 -5 3 -10 10 -10 15 0 13 28 1 34 -15z m46 10 c7 -8 8 -15 2 -15 -5 0 -15 7
-22 15 -7 8 -8 15 -2 15 5 0 15 -7 22 -15z m230 -12 c0 -20 -24 -11 -28 10 -2
12 1 15 12 11 9 -3 16 -13 16 -21z m140 12 c7 -9 8 -15 2 -15 -5 0 -12 7 -16
15 -3 8 -4 15 -2 15 2 0 9 -7 16 -15z m106 -22 c2 -16 1 -16 -12 1 -8 11 -14
24 -14 30 0 16 24 -12 26 -31z m972 -138 c81 -90 92 -107 86 -130 -4 -16 -11
-24 -20 -21 -7 3 -20 -1 -28 -9 -8 -8 -22 -15 -31 -15 -9 0 -25 -4 -35 -10
-14 -7 -20 -6 -25 7 -4 13 -8 14 -14 5 -6 -10 -15 -9 -40 5 -28 16 -33 16 -41
3 -5 -8 -10 -10 -10 -4 0 17 -71 29 -80 14 -5 -8 -9 -8 -13 2 -2 8 -24 20 -46
28 -41 13 -58 26 -48 36 3 3 13 1 24 -5 34 -18 223 -51 294 -51 73 0 109 11
109 34 0 7 -35 47 -77 88 -80 77 -117 120 -147 173 -15 25 -12 24 16 -9 18
-21 75 -85 126 -141z m-2673 134 c-7 -10 -48 4 -53 19 -2 8 5 9 27 1 17 -6 29
-15 26 -20z m1147 -9 c0 -8 1 -21 1 -27 -1 -7 3 -13 8 -13 5 0 9 -11 9 -25 0
-14 -4 -25 -10 -25 -5 0 -7 -7 -4 -15 4 -8 9 -13 13 -11 4 3 7 -4 7 -13 0 -15
-3 -17 -19 -7 -13 8 -17 19 -13 38 3 15 2 30 -3 32 -5 3 -11 15 -14 26 -3 11
-1 18 4 14 14 -8 10 9 -6 30 -8 11 -15 24 -15 28 0 14 40 -16 42 -32z m-1372
15 c20 -24 6 -28 -15 -5 -10 11 -13 20 -8 20 6 0 16 -7 23 -15z m1151 -23 c7
-15 15 -30 17 -34 2 -5 -1 -8 -7 -8 -9 0 -51 60 -51 73 0 15 29 -7 41 -31z
m169 3 c0 -21 -5 -19 -25 11 -16 25 -16 25 4 14 12 -6 21 -17 21 -25z m440 -8
c0 -5 -7 -4 -15 3 -8 7 -15 20 -15 29 1 13 3 13 15 -3 8 -11 15 -24 15 -29z
m30 23 c6 -11 9 -20 7 -20 -2 0 -12 9 -22 20 -10 11 -13 20 -7 20 6 0 16 -9
22 -20z m-520 -17 c0 -20 -24 -11 -28 10 -2 12 1 15 12 11 9 -3 16 -13 16 -21z
m630 6 c0 -5 -4 -9 -10 -9 -5 0 -10 7 -10 16 0 8 5 12 10 9 6 -3 10 -10 10
-16z m-1746 -11 c-3 -5 -12 -4 -20 3 -19 16 -18 18 6 12 11 -3 17 -9 14 -15z
m966 -37 c-1 -13 -4 -12 -16 4 -9 11 -20 29 -26 40 -9 17 -6 16 16 -4 14 -14
26 -32 26 -40z m98 47 c17 -17 15 -39 -3 -32 -20 8 -19 -3 5 -33 25 -32 28
-62 4 -42 -8 7 -22 26 -31 42 -12 23 -12 31 -2 37 6 5 9 15 6 24 -7 19 4 21
21 4z m252 -7 c7 11 13 10 29 -5 23 -21 29 -52 9 -39 -20 12 -38 12 -38 1 0
-6 -9 -3 -20 7 -20 19 -28 41 -10 30 6 -3 11 2 11 12 1 16 2 16 6 -1 4 -15 7
-16 13 -5z m93 -21 c3 -11 1 -20 -4 -20 -5 0 -9 5 -9 10 0 6 -7 10 -15 10 -8
0 -15 9 -15 20 0 17 3 19 19 11 10 -6 21 -20 24 -31z m92 22 c0 -20 -18 -18
-21 1 -1 10 3 16 9 14 7 -2 12 -9 12 -15z m-1710 -4 c5 4 5 1 1 -6 -6 -10 -11
-10 -22 -1 -8 6 -14 14 -14 16 0 3 6 0 13 -6 8 -6 18 -7 22 -3z m1780 -8 c3
-5 -1 -10 -9 -10 -9 0 -16 5 -16 10 0 6 4 10 9 10 6 0 13 -4 16 -10z m-1641
-12 c-3 -4 -9 -8 -15 -8 -5 0 -9 4 -9 8 0 5 7 9 15 9 8 0 12 -4 9 -9z m1336
-9 c6 -11 9 -25 7 -32 -2 -7 -11 3 -21 21 -9 17 -12 32 -7 32 6 0 15 -9 21
-21z m384 -10 c-8 -13 -24 -1 -24 18 0 13 3 13 15 3 8 -7 12 -16 9 -21z m30
16 c-4 -8 -7 -15 -9 -15 -2 0 -5 7 -9 15 -3 9 0 15 9 15 9 0 12 -6 9 -15z
m-511 -9 c9 -7 17 -21 17 -30 0 -18 -16 -22 -22 -5 -2 6 -11 7 -22 3 -19 -7
-19 -8 0 -15 18 -7 18 -8 -1 -8 -20 -1 -52 36 -40 47 3 3 15 1 26 -7 19 -11
20 -10 14 8 -7 24 2 26 28 7z m317 -12 c0 -8 -4 -12 -10 -9 -5 3 -10 13 -10
21 0 8 5 12 10 9 6 -3 10 -13 10 -21z m-2030 1 c0 -8 -2 -15 -4 -15 -2 0 -6 7
-10 15 -3 8 -1 15 4 15 6 0 10 -7 10 -15z m85 4 c11 -17 -1 -21 -15 -4 -8 9
-8 15 -2 15 6 0 14 -5 17 -11z m325 -19 c0 -6 -9 -5 -20 2 -11 7 -20 16 -20
21 0 4 9 3 20 -3 11 -6 20 -15 20 -20z m1680 20 c0 -5 -2 -10 -4 -10 -3 0 -8
5 -11 10 -3 6 -1 10 4 10 6 0 11 -4 11 -10z m-90 -33 c0 -23 -2 -22 -19 10
-10 19 -9 22 4 17 8 -4 15 -15 15 -27z m167 14 c-1 -15 -4 -17 -14 -9 -7 5
-10 14 -7 19 10 16 23 9 21 -10z m-1957 -19 c0 -8 -1 -13 -3 -11 -1 2 -9 12
-16 22 -12 15 -12 17 3 11 9 -3 16 -13 16 -22z m1700 -7 c0 -8 -8 -11 -20 -8
-22 6 -26 -7 -8 -25 7 -7 9 -12 6 -12 -4 0 -14 7 -22 16 -18 17 -36 11 -36
-14 0 -13 -2 -13 -15 4 -20 27 -20 51 0 34 12 -10 16 -9 21 3 3 9 13 13 25 10
13 -4 19 0 19 12 0 14 3 15 15 5 8 -7 15 -18 15 -25z m-1560 4 c0 -11 -3 -11
-24 -3 -23 9 -20 23 4 17 11 -3 20 -9 20 -14z m1610 -1 c0 -12 -1 -19 -3 -17
-1 2 -9 12 -16 22 -12 14 -11 17 3 17 10 0 16 -8 16 -22z m175 13 c3 -5 1 -12
-5 -16 -5 -3 -10 1 -10 9 0 18 6 21 15 7z m-3335 -31 c0 -16 -4 -30 -10 -30
-5 0 -10 14 -10 30 0 17 5 30 10 30 6 0 10 -13 10 -30z m50 0 c0 -16 -4 -30
-10 -30 -5 0 -10 14 -10 30 0 17 5 30 10 30 6 0 10 -13 10 -30z m1296 3 c-7
-7 -26 7 -26 19 0 6 6 6 15 -2 9 -7 13 -15 11 -17z m-156 1 c0 -9 5 -12 12 -8
7 4 8 3 4 -4 -11 -18 -24 -14 -36 8 -9 16 -8 20 5 20 8 0 15 -7 15 -16z m84
-15 c-3 -6 -7 -9 -8 -7 -1 2 -8 12 -16 22 -14 18 -14 19 8 7 12 -7 20 -17 16
-22z m190 16 c-4 -8 1 -17 10 -21 16 -6 22 -24 8 -24 -12 0 -33 40 -27 50 9
15 15 12 9 -5z m1401 -5 c4 -7 12 -7 24 0 22 11 54 -18 50 -47 -1 -10 1 -26 6
-36 12 -29 -5 -34 -26 -8 l-19 23 0 -38 c0 -34 -1 -36 -13 -19 -17 22 -40 11
-32 -15 6 -19 -16 -23 -32 -5 -5 4 -1 4 7 0 13 -8 13 -6 1 8 -13 16 -36 14
-26 -3 3 -4 -2 -10 -10 -14 -8 -3 -17 -1 -20 4 -4 6 -1 10 5 10 6 0 9 4 6 9
-3 5 2 26 11 47 9 22 16 42 15 47 -1 4 2 7 7 7 5 0 13 9 16 20 7 22 20 26 30
10z m407 -12 c-7 -7 -12 -8 -12 -2 0 6 3 14 7 17 3 4 9 5 12 2 2 -3 -1 -11 -7
-17z m-3658 -4 c21 -20 21 -97 1 -114 -8 -7 -26 -10 -40 -8 -21 4 -25 1 -25
-18 0 -13 -4 -24 -10 -24 -6 0 -10 35 -10 86 0 68 3 85 13 81 8 -3 20 -1 28 4
19 12 25 11 43 -7z m130 6 c20 -7 26 -16 26 -40 0 -28 -2 -30 -40 -30 -43 0
-43 0 -34 -24 7 -19 35 -21 52 -4 17 17 28 2 12 -17 -18 -22 -67 -19 -80 4
-18 35 -12 88 12 105 27 19 21 18 52 6z m3570 -11 c-3 -5 -10 -7 -15 -3 -5 3
-7 10 -3 15 3 5 10 7 15 3 5 -3 7 -10 3 -15z m-2037 -39 c15 -13 35 -26 45
-27 19 -3 19 -2 -1 23 -26 33 -28 55 -2 26 10 -12 21 -19 24 -16 8 8 19 -54
12 -66 -5 -8 -13 -5 -27 6 -16 16 -21 16 -28 4 -8 -13 -10 -13 -10 -1 0 8 -3
11 -7 7 -4 -4 -13 8 -19 26 -11 28 -13 30 -13 9 -1 -20 -3 -22 -16 -11 -13 11
-13 15 -3 21 10 7 10 11 0 21 -6 6 -12 16 -12 20 0 9 14 -1 57 -42z m1916 36
c8 5 9 4 2 -4 -18 -19 -49 -18 -53 1 -3 16 -1 17 17 7 12 -6 27 -8 34 -4z
m171 -1 c3 -8 1 -15 -4 -15 -6 0 -10 7 -10 15 0 8 2 15 4 15 2 0 6 -7 10 -15z
m354 -45 c2 -29 -1 -57 -7 -63 -6 -6 -10 14 -13 57 -2 41 1 65 7 63 6 -2 11
-27 13 -57z m76 54 c9 -3 16 -17 16 -30 0 -13 6 -24 13 -25 10 0 10 -2 0 -6
-7 -2 -13 -18 -13 -34 0 -53 -19 -30 -22 26 -4 72 -21 71 -29 -2 l-6 -58 -1
58 c-1 31 -6 57 -12 57 -5 0 -10 5 -10 10 0 11 39 13 64 4z m-3874 -14 c0 -5
-22 -10 -50 -10 -27 0 -50 5 -50 10 0 6 23 10 50 10 28 0 50 -4 50 -10z m1497
-7 c5 3 9 -3 10 -13 2 -29 -14 -33 -31 -8 -20 28 -21 44 -1 28 8 -6 18 -9 22
-7z m-645 -28 c4 -17 1 -25 -9 -25 -8 0 -11 -5 -7 -12 4 -7 3 -8 -4 -4 -9 5
-10 39 -3 74 3 12 19 -12 23 -33z m2348 9 c0 -8 -4 -12 -10 -9 -5 3 -10 13
-10 21 0 8 5 12 10 9 6 -3 10 -13 10 -21z m743 19 c-7 -2 -19 -2 -25 0 -7 3
-2 5 12 5 14 0 19 -2 13 -5z m-787 -49 c-6 -16 -26 -19 -26 -3 0 5 5 7 10 4 6
-3 10 -2 10 4 0 5 -6 12 -12 14 -10 4 -9 8 2 16 17 12 26 -8 16 -35z m837 6
c-5 -38 -4 -40 21 -40 14 0 26 -4 26 -10 0 -5 -25 -10 -55 -10 -30 0 -55 5
-55 10 0 6 11 10 25 10 21 0 25 5 25 28 0 15 -5 33 -12 40 -9 9 -7 12 9 12 19
0 21 -4 16 -40z m-2723 -17 c0 -7 -4 -13 -9 -13 -5 0 -16 -3 -25 -6 -9 -3 -16
-1 -16 6 0 6 4 9 9 6 5 -3 14 1 21 9 9 10 9 15 1 15 -6 0 -11 8 -11 18 1 15 2
15 15 -2 8 -11 15 -26 15 -33z m2120 2 c0 -9 -5 -13 -10 -10 -6 4 -8 11 -5 16
4 5 1 9 -4 9 -6 0 -11 7 -11 16 0 14 2 14 15 0 8 -8 15 -22 15 -31z m36 30 c8
-8 15 -18 16 -22 0 -4 3 -14 6 -21 7 -18 -9 -31 -40 -34 -15 -1 -26 -6 -25
-11 1 -5 -4 -12 -10 -14 -7 -3 -13 2 -13 11 0 9 -4 16 -10 16 -5 0 -10 7 -10
15 0 8 5 15 10 15 6 0 10 -4 10 -10 0 -16 30 -12 36 5 4 8 10 15 16 15 5 0 6
-6 2 -12 -5 -10 -4 -10 6 -1 11 10 11 16 -3 31 -28 30 -19 46 9 17z m-2234
-20 c4 -21 1 -25 -17 -25 -13 0 -22 6 -22 15 0 9 6 14 14 11 7 -3 12 -2 12 2
-5 30 8 28 13 -3z m1923 15 c3 -5 -1 -10 -9 -10 -9 0 -16 5 -16 10 0 6 4 10 9
10 6 0 13 -4 16 -10z m215 6 c0 -3 -4 -8 -10 -11 -5 -3 -10 -1 -10 4 0 6 5 11
10 11 6 0 10 -2 10 -4z m127 -18 c-3 -8 -6 -5 -6 6 -1 11 2 17 5 13 3 -3 4
-12 1 -19z m675 4 c-24 -8 -13 -41 15 -44 14 -2 28 -8 30 -14 2 -7 -6 -10 -24
-6 -39 7 -53 20 -53 52 0 24 3 27 22 22 12 -3 17 -7 10 -10z m-2648 -5 c3 3 6
0 6 -7 0 -7 3 -10 7 -6 4 4 12 -7 18 -25 8 -22 19 -33 35 -36 28 -4 41 -20 33
-40 -3 -9 -9 -10 -17 -4 -6 5 -22 11 -36 13 -19 2 -24 8 -23 25 2 15 -6 29
-23 39 -13 9 -29 26 -35 36 -9 17 -8 18 9 9 11 -6 22 -7 26 -4z m1585 -12 c3
-17 2 -17 -13 -3 -19 20 -21 31 -3 26 6 -3 14 -13 16 -23z m-3069 5 c0 -5 -22
-10 -50 -10 -27 0 -50 5 -50 10 0 6 23 10 50 10 28 0 50 -4 50 -10z m1564 -1
c-2 -4 0 -10 6 -14 5 -3 10 -13 10 -22 0 -13 -5 -12 -25 7 -30 28 -31 36 -6
36 11 0 18 -4 15 -7z m72 -15 c26 -27 31 -46 11 -38 -15 5 -52 64 -41 64 4 0
17 -11 30 -26z m-518 -19 c-3 -3 -9 2 -12 12 -6 14 -5 15 5 6 7 -7 10 -15 7
-18z m2082 3 c0 -5 -5 -18 -10 -29 -7 -11 -7 -19 -1 -19 5 0 12 6 14 13 3 7 6
5 6 -5 1 -10 -4 -18 -10 -18 -6 0 0 -13 13 -28 12 -15 31 -48 42 -72 10 -25
22 -52 26 -61 8 -15 2 -25 -50 -86 -5 -7 -10 -19 -10 -27 0 -23 -30 -8 -41 21
-5 13 -13 22 -18 19 -11 -7 -31 39 -30 72 l1 27 14 -32 c7 -17 22 -34 32 -37
14 -5 18 -13 15 -30 -3 -13 -1 -26 4 -29 5 -3 9 4 9 16 -1 12 4 21 11 20 8 -2
10 4 6 14 -4 11 -3 14 5 9 7 -4 12 -1 12 8 0 9 4 16 8 16 5 0 9 13 9 30 0 16
-4 27 -9 24 -4 -3 -8 5 -8 17 0 12 -3 19 -7 16 -13 -14 -49 65 -67 145 -5 22
-3 25 14 21 11 -3 20 -10 20 -15z m87 0 c-4 -12 0 -36 7 -52 19 -42 26 -77 15
-70 -5 3 -13 -5 -18 -18 -7 -17 -10 -19 -10 -5 -1 9 -5 17 -10 17 -12 0 -23
29 -15 42 3 5 12 1 20 -9 12 -17 13 -16 14 10 0 16 -7 30 -15 33 -8 4 -15 12
-15 20 0 8 -4 14 -10 14 -5 0 -10 4 -10 9 0 5 9 7 20 4 14 -4 20 0 20 11 0 9
3 16 6 16 4 0 4 -10 1 -22z m197 13 c3 -5 -1 -11 -9 -15 -9 -3 -15 0 -15 9 0
16 16 20 24 6z m-2544 -5 c0 -3 -4 -8 -10 -11 -5 -3 -10 -1 -10 4 0 6 5 11 10
11 6 0 10 -2 10 -4z m2203 -21 c4 -8 2 -17 -3 -20 -6 -4 -10 -1 -10 5 0 6 -4
8 -10 5 -5 -3 -15 -3 -22 1 -8 5 -6 10 8 15 28 11 31 11 37 -6z m172 5 c3 -5
1 -10 -4 -10 -6 0 -11 5 -11 10 0 6 2 10 4 10 3 0 8 -4 11 -10z m-2215 -16 c0
-8 -5 -12 -10 -9 -6 4 -8 11 -5 16 9 14 15 11 15 -7z m1878 -10 c4 2 25 -21
47 -52 21 -30 34 -52 27 -49 -6 4 -12 -1 -15 -10 -2 -10 -3 -8 -2 5 1 12 -1
22 -5 22 -4 0 -13 14 -20 31 -8 19 -18 28 -27 25 -8 -4 -17 4 -23 20 -13 33
-12 44 1 21 6 -9 13 -15 17 -13z m539 0 c2 -10 0 -13 -3 -6 -3 6 -12 12 -20
12 -9 0 -12 5 -9 11 10 15 30 5 32 -17z m-2587 6 c-8 -5 -19 -10 -25 -10 -5 0
-3 5 5 10 8 5 20 10 25 10 6 0 3 -5 -5 -10z m2159 -4 c10 -12 8 -13 -8 -9 -12
3 -21 9 -21 14 0 14 16 11 29 -5z m-2101 -22 c-14 -14 -16 -14 -22 1 -4 13 -2
16 9 11 8 -3 15 0 15 6 0 6 3 8 7 4 4 -3 0 -13 -9 -22z m52 5 c0 -11 -4 -18
-10 -14 -5 3 -7 12 -3 20 7 21 13 19 13 -6z m2000 11 c0 -5 -4 -10 -10 -10 -5
0 -10 5 -10 10 0 6 5 10 10 10 6 0 10 -4 10 -10z m195 1 c-3 -5 -1 -12 5 -16
5 -3 10 -11 10 -17 0 -7 -6 -6 -15 2 -17 14 -20 40 -4 40 5 0 8 -4 4 -9z m102
-20 c-9 -12 -9 -13 1 -7 6 4 12 2 12 -3 0 -6 -7 -11 -15 -11 -8 0 -15 8 -15
18 0 10 7 19 15 19 12 0 12 -3 2 -16z m107 8 c-4 -7 0 -9 13 -5 12 4 24 -1 33
-14 8 -11 21 -20 29 -20 11 0 10 -4 -5 -15 -18 -13 -16 -14 24 -15 24 0 41 -4
38 -9 -11 -18 48 -20 63 -3 13 16 13 16 8 0 -6 -17 11 -28 45 -28 16 0 19 5
16 25 -3 14 -2 25 3 25 4 0 9 -10 11 -22 2 -18 11 -24 38 -28 l35 -6 -32 -6
c-29 -7 -94 -4 -208 7 -22 2 -51 5 -65 5 l-25 2 25 8 c23 7 21 8 -23 20 -57
15 -66 26 -30 35 36 9 11 25 -31 20 l-31 -4 24 19 c25 21 57 27 45 9z m-549
-9 c5 -8 11 -7 20 0 8 7 19 9 25 5 15 -9 2 -25 -15 -19 -9 4 -16 -3 -21 -21
-7 -29 -14 -25 -32 18 -9 22 -9 27 3 27 7 0 17 -5 20 -10z m970 0 c3 -6 -1 -7
-9 -4 -18 7 -21 14 -7 14 6 0 13 -4 16 -10z m-3351 -11 c14 -7 23 -16 20 -20
-3 -5 -14 -5 -24 1 -10 5 -26 7 -34 4 -11 -4 -16 -1 -16 10 0 19 19 20 54 5z
m2636 -10 c0 -11 -4 -17 -10 -14 -5 3 -10 13 -10 21 0 8 5 14 10 14 6 0 10 -9
10 -21z m-34 -26 c3 -23 1 -25 -12 -11 -8 8 -12 22 -8 32 8 22 17 13 20 -21z
m-40 0 c-10 -10 -19 5 -10 18 6 11 8 11 12 0 2 -7 1 -15 -2 -18z m-1776 7 c0
-5 -4 -10 -10 -10 -5 0 -10 5 -10 10 0 6 5 10 10 10 6 0 10 -4 10 -10z m1630
-11 c0 -6 -4 -7 -10 -4 -5 3 -10 11 -10 16 0 6 5 7 10 4 6 -3 10 -11 10 -16z
m-2420 -8 c5 -11 10 -30 9 -43 -1 -21 -2 -20 -9 5 -5 16 -14 35 -21 43 -8 9
-8 14 -1 14 6 0 16 -9 22 -19z m183 -6 c-3 -8 -10 -15 -15 -15 -7 0 -6 5 1 13
6 8 7 18 3 22 -4 5 -2 5 5 1 7 -4 10 -13 6 -21z m667 21 c0 -3 -4 -8 -10 -11
-5 -3 -10 -1 -10 4 0 6 5 11 10 11 6 0 10 -2 10 -4z m1542 -21 c3 3 8 -3 11
-15 4 -16 -10 -41 -16 -29 -1 2 -11 20 -21 39 -19 35 -19 35 1 17 11 -9 22
-15 25 -12z m472 -28 c-4 -12 -7 -24 -6 -27 0 -3 -7 -13 -15 -23 -13 -13 -18
-14 -24 -5 -4 7 -4 15 1 18 5 3 11 15 14 25 2 11 7 31 11 44 7 20 9 21 17 7 5
-9 6 -26 2 -39z m-1794 21 c0 -16 -3 -19 -11 -11 -6 6 -8 16 -5 22 11 17 16
13 16 -11z m1412 0 c-6 -6 -15 -8 -19 -4 -4 4 -1 11 7 16 19 12 27 3 12 -12z
m228 -55 c0 -16 -12 -17 -29 0 -12 10 -13 8 -6 -8 14 -37 17 -65 7 -65 -22 0
-31 77 -11 97 8 8 8 13 0 17 -6 4 -11 13 -11 19 0 7 11 -1 25 -17 14 -16 25
-35 25 -43z m-257 43 c4 -10 1 -13 -9 -9 -15 6 -19 23 -5 23 5 0 11 -7 14 -14z
m187 -7 c0 -11 -4 -17 -10 -14 -5 3 -10 13 -10 21 0 8 5 14 10 14 6 0 10 -9
10 -21z m-2670 -9 c0 -5 -4 -10 -10 -10 -5 0 -10 5 -10 10 0 6 5 10 10 10 6 0
10 -4 10 -10z m767 -10 c-1 -21 -10 -18 -13 5 -1 8 2 15 6 15 5 0 8 -9 7 -20z
m1859 -7 c-10 -10 -19 5 -10 18 6 11 8 11 12 0 2 -7 1 -15 -2 -18z m784 17 c0
-5 -2 -10 -4 -10 -3 0 -8 5 -11 10 -3 6 -1 10 4 10 6 0 11 -4 11 -10z m-820
-20 c0 -11 -4 -20 -10 -20 -5 0 -10 9 -10 20 0 11 5 20 10 20 6 0 10 -9 10
-20z m607 -6 c-3 -3 -12 -4 -19 -1 -8 3 -5 6 6 6 11 1 17 -2 13 -5z m-2727 -8
c0 -11 -19 -15 -25 -6 -3 5 1 10 9 10 9 0 16 -2 16 -4z m-890 -33 c0 -5 -11
-21 -25 -38 -21 -26 -23 -27 -18 -7 3 12 9 22 14 22 5 0 9 7 9 15 0 8 5 15 10
15 6 0 10 -3 10 -7z m257 0 c-4 -3 -1 -13 6 -22 11 -14 10 -14 -5 -2 -21 15
-23 31 -6 31 6 0 8 -3 5 -7z m2813 -80 c0 -7 -3 -13 -7 -13 -13 0 -33 52 -32
79 1 23 3 22 20 -14 10 -22 19 -46 19 -52z m690 52 c0 -5 -5 -3 -10 5 -5 8
-10 20 -10 25 0 6 5 3 10 -5 5 -8 10 -19 10 -25z m-3315 5 c3 -5 1 -10 -4 -10
-6 0 -11 5 -11 10 0 6 2 10 4 10 3 0 8 -4 11 -10z m-215 -10 c0 -5 -15 -17
-32 -25 -28 -13 -30 -13 -13 -1 11 8 25 20 30 25 13 13 15 13 15 1z m770 -10
c-20 -13 -53 -13 -45 0 3 5 12 7 19 4 8 -3 17 0 21 6 4 6 10 9 13 5 4 -3 0
-10 -8 -15z m-187 -5 c-3 -9 -8 -14 -10 -11 -3 3 -2 9 2 15 9 16 15 13 8 -4z
m2044 -7 c-3 -8 -6 -5 -6 6 -1 11 2 17 5 13 3 -3 4 -12 1 -19z m183 -43 c0 -5
-5 -3 -10 5 -5 8 -10 20 -10 25 0 6 5 3 10 -5 5 -8 10 -19 10 -25z m550 21 c0
-2 -7 -6 -15 -10 -8 -3 -15 -1 -15 4 0 6 7 10 15 10 8 0 15 -2 15 -4z m-3080
-30 c0 -2 -9 -6 -20 -9 -11 -3 -20 -1 -20 4 0 5 9 9 20 9 11 0 20 -2 20 -4z
m2567 -28 c-3 -7 -5 -2 -5 12 0 14 2 19 5 13 2 -7 2 -19 0 -25z m33 17 c0 -8
-4 -15 -10 -15 -5 0 -10 7 -10 15 0 8 5 15 10 15 6 0 10 -7 10 -15z m-2600 -8
c0 -2 -10 -12 -22 -23 l-23 -19 19 23 c18 21 26 27 26 19z m2985 -7 c4 -6 -6
-10 -22 -9 -25 0 -26 1 -8 9 11 5 21 9 22 9 1 1 5 -3 8 -9z m-65 -26 c0 -8 -4
-12 -10 -9 -5 3 -10 10 -10 16 0 5 5 9 10 9 6 0 10 -7 10 -16z m-51 -18 c-16
-16 -89 -38 -89 -27 0 8 93 50 99 44 3 -2 -2 -10 -10 -17z m-142 -32 c-3 -3
-12 -4 -19 -1 -8 3 -5 6 6 6 11 1 17 -2 13 -5z m-44 -38 c-11 -14 -29 -23 -45
-24 -35 -1 -27 15 16 34 44 19 49 17 29 -10z m-3433 -120 c0 -3 -4 -8 -10 -11
-5 -3 -10 -1 -10 4 0 6 5 11 10 11 6 0 10 -2 10 -4z m-30 -41 c-7 -8 -18 -15
-24 -15 -6 0 -2 7 8 15 25 19 32 19 16 0z m1830 -180 c0 -36 -17 -65 -34 -59
-10 4 -13 0 -10 -13 3 -11 -4 -30 -15 -44 -11 -13 -20 -18 -21 -11 0 6 -5 12
-10 12 -7 0 -7 -6 -1 -19 8 -15 5 -26 -17 -55 -15 -19 -35 -46 -44 -58 l-17
-23 -1 23 c0 12 4 22 8 22 4 0 14 17 21 38 8 20 17 39 20 42 12 10 31 50 31
65 0 8 5 15 10 15 6 0 10 7 10 15 0 8 5 15 10 15 6 0 10 9 10 19 0 11 5 23 10
26 6 3 10 15 10 26 0 18 2 19 15 5 8 -8 15 -26 15 -41z m1420 14 c0 -6 -4 -7
-10 -4 -5 3 -10 11 -10 16 0 6 5 7 10 4 6 -3 10 -11 10 -16z m-1585 -29 c3 -5
1 -10 -4 -10 -6 0 -11 5 -11 10 0 6 2 10 4 10 3 0 8 -4 11 -10z m44 -98 c-29
-51 -48 -13 -21 43 l15 30 10 -24 c8 -17 7 -29 -4 -49z m1381 35 c0 -5 -4 -5
-10 -2 -5 3 -10 14 -10 23 0 15 2 15 10 2 5 -8 10 -19 10 -23z m-313 7 c-3 -3
-12 -4 -19 -1 -8 3 -5 6 6 6 11 1 17 -2 13 -5z m116 -19 c15 -22 16 -25 2 -25
-8 0 -15 5 -15 11 0 5 -8 9 -17 8 -10 -1 -27 -1 -38 0 -18 2 -18 3 5 16 34 20
42 18 63 -10z m-173 5 c-36 -11 -52 -11 -45 0 3 6 21 10 38 9 31 -1 31 -1 7
-9z m-2520 -26 c0 -2 -9 0 -20 6 -11 6 -20 13 -20 16 0 2 9 0 20 -6 11 -6 20
-13 20 -16z m2780 5 c0 -5 -13 -9 -30 -9 -32 0 -41 16 -12 22 21 5 42 -1 42
-13z m660 -74 l0 -95 -95 0 -95 0 0 95 0 95 95 0 95 0 0 -95z m-3790 65 c0 -5
-12 -10 -26 -10 -14 0 -23 4 -19 10 3 6 15 10 26 10 10 0 19 -4 19 -10z m2130
-20 c-10 -18 -30 -36 -30 -26 0 19 22 56 30 51 7 -4 7 -12 0 -25z m-186 -45
c-16 -25 -19 -26 -25 -9 -4 12 -1 22 7 27 8 4 14 18 15 30 l0 22 11 -21 c8
-17 6 -28 -8 -49z m136 52 c0 -8 -9 -22 -20 -32 -18 -16 -20 -16 -20 -2 0 10
5 17 10 17 6 0 10 7 10 15 0 8 5 15 10 15 6 0 10 -6 10 -13z m-74 -38 c-17
-25 -20 -19 -10 19 5 15 10 20 16 14 7 -7 5 -18 -6 -33z m1198 -11 c-7 -11
-34 -10 -34 1 0 5 3 17 6 25 6 15 8 15 19 -1 7 -10 11 -21 9 -25z m-2873 23
c4 7 11 10 16 6 9 -9 -17 -28 -29 -21 -4 3 -8 11 -7 17 0 8 3 7 6 -2 4 -11 7
-11 14 0z m59 -5 c0 -6 5 -4 10 4 9 13 11 13 20 0 5 -8 10 -11 10 -6 0 5 8 1
19 -8 10 -9 28 -18 40 -19 29 -2 26 -14 -6 -20 -28 -5 -83 10 -83 23 0 4 -9
10 -20 13 -23 6 -27 24 -5 24 8 0 15 -5 15 -11z m4540 -12 c0 -8 -7 -14 -15
-14 -15 0 -21 21 -9 33 10 9 24 -2 24 -19z m-2555 6 c-27 -12 -35 -12 -35 0 0
6 12 10 28 9 24 0 25 -1 7 -9z m719 -39 c-3 -3 -12 3 -20 14 -13 17 -16 18
-24 5 -7 -11 -10 -11 -10 -2 0 7 10 16 23 21 17 7 24 4 30 -12 4 -11 5 -23 1
-26z m-972 7 c-7 -7 -12 -8 -12 -2 0 6 3 14 7 17 3 4 9 5 12 2 2 -3 -1 -11 -7
-17z m900 -33 c-2 -30 -8 -55 -13 -55 -14 0 -11 98 4 103 6 3 12 6 12 6 0 1
-2 -24 -3 -54z m-968 13 c-15 -17 -16 -20 -3 -16 14 6 15 3 5 -18 -14 -30 -25
-31 -22 -1 3 24 28 69 35 62 2 -3 -4 -15 -15 -27z m-151 8 c3 -8 -6 -24 -20
-37 -22 -21 -24 -21 -15 -4 6 11 13 28 16 38 6 21 12 22 19 3z m57 -4 c0 -5
-9 -17 -21 -28 -21 -19 -21 -19 -8 9 12 26 29 37 29 19z m36 -20 c-17 -16 -18
-16 -5 5 7 12 15 20 18 17 3 -2 -3 -12 -13 -22z m954 -2 c0 -48 -54 -66 -90
-30 -11 11 -26 20 -32 21 -7 1 -2 4 12 8 19 6 27 3 32 -12 12 -29 52 -19 56
16 4 36 22 35 22 -3z m-710 0 c0 -5 -5 -10 -11 -10 -5 0 -7 5 -4 10 3 6 8 10
11 10 2 0 4 -4 4 -10z m530 -9 c20 -1 22 -3 10 -11 -12 -8 -11 -10 8 -10 12 0
22 -4 22 -10 0 -15 -47 -12 -64 5 -8 8 -24 15 -36 15 -12 0 -19 4 -16 8 3 5
15 8 28 6 13 -1 34 -3 48 -3z m-768 -13 c-15 -15 -16 -31 0 -22 7 4 8 3 4 -4
-4 -6 -13 -9 -22 -5 -13 5 -13 8 2 24 9 11 20 19 23 19 3 0 0 -5 -7 -12z m138
2 c0 -5 -6 -10 -12 -10 -7 0 -24 -3 -38 -5 -22 -5 -21 -3 5 9 36 18 45 19 45
6z m210 6 c0 -3 -4 -8 -10 -11 -5 -3 -10 -1 -10 4 0 6 5 11 10 11 6 0 10 -2
10 -4z m153 -8 c-5 -10 -143 -6 -143 4 0 4 33 6 74 5 41 -1 72 -5 69 -9z m84
6 c-3 -3 -12 -4 -19 -1 -8 3 -5 6 6 6 11 1 17 -2 13 -5z m2338 -26 c-9 -40
-13 -48 -26 -48 -5 0 -7 12 -3 28 10 45 13 52 24 52 8 0 9 -11 5 -32z m-4747
3 c3 -8 -1 -12 -9 -9 -7 2 -15 10 -17 17 -3 8 1 12 9 9 7 -2 15 -10 17 -17z
m1668 -7 c-4 -9 -9 -15 -11 -12 -3 3 -3 13 1 22 4 9 9 15 11 12 3 -3 3 -13 -1
-22z m96 4 c-6 -6 -25 -12 -42 -13 -25 -2 -28 0 -19 11 7 8 21 11 35 8 16 -4
24 -2 24 7 0 7 3 9 7 6 4 -4 2 -12 -5 -19z m1261 7 c1 -5 -6 -11 -15 -13 -11
-2 -18 3 -18 13 0 17 30 18 33 0z m-3123 -5 c0 -5 -12 -10 -27 -9 l-28 1 25 8
c14 4 26 8 28 9 1 1 2 -3 2 -9z m1720 2 c0 -5 -6 -17 -14 -27 -13 -18 -14 -18
-9 8 5 24 23 39 23 19z m844 -4 c-7 -10 -51 -10 -58 0 -3 5 10 9 29 9 19 0 32
-4 29 -9z m-912 -20 c-7 -7 -12 -8 -12 -2 0 6 3 14 7 17 3 4 9 5 12 2 2 -3 -1
-11 -7 -17z m-1476 -15 c-15 -8 -35 -12 -44 -10 -12 3 -7 8 18 20 42 18 64 10
26 -10z m1434 17 c0 -5 -5 -10 -11 -10 -5 0 -7 5 -4 10 3 6 8 10 11 10 2 0 4
-4 4 -10z m530 0 c8 -5 12 -12 8 -15 -9 -9 -48 4 -48 16 0 12 21 11 40 -1z
m-570 -45 c-7 -9 -15 -13 -17 -11 -7 7 7 26 19 26 6 0 6 -6 -2 -15z m217 -1
c-3 -3 -12 -4 -19 -1 -8 3 -5 6 6 6 11 1 17 -2 13 -5z m-70 -10 c-3 -3 -12 -4
-19 -1 -8 3 -5 6 6 6 11 1 17 -2 13 -5z m-1763 -33 c-21 -21 -29 -19 -21 4 4
8 14 15 23 15 16 0 16 -2 -2 -19z m1026 -15 c0 -2 -7 -7 -16 -10 -8 -3 -12 -2
-9 4 6 10 25 14 25 6z m39 -28 c-6 -7 -21 -13 -33 -14 -11 0 -41 -4 -66 -8
-61 -11 -42 6 23 20 74 17 91 17 76 2z m318 6 c-3 -3 -12 -4 -19 -1 -8 3 -5 6
6 6 11 1 17 -2 13 -5z m323 -2 c0 -5 -11 -19 -24 -31 l-23 -22 5 28 c7 43 -16
16 -31 -38 -8 -24 -19 -43 -24 -42 -18 4 -32 -21 -35 -58 -3 -29 0 -34 20 -37
12 -2 22 -8 22 -14 0 -7 -16 -8 -45 -4 -34 6 -45 4 -45 -6 0 -10 -2 -10 -8 -1
-6 9 -15 4 -34 -17 -15 -18 -21 -31 -14 -34 6 -2 3 -5 -6 -5 -12 -1 -18 7 -19
22 0 12 -3 16 -6 10 -2 -7 -11 -13 -18 -13 -7 0 -16 -13 -20 -29 -3 -16 -13
-32 -21 -35 -8 -3 -14 -12 -14 -19 0 -24 -23 -37 -40 -24 -39 31 -41 42 -19
96 12 28 25 51 29 51 7 0 19 32 27 75 2 11 13 37 24 59 11 21 18 41 15 43 -8
8 -44 -57 -62 -111 -15 -43 -18 -47 -29 -32 -11 14 -13 15 -18 1 -4 -8 -1 -14
6 -12 27 5 -11 -116 -40 -127 -11 -5 -13 -1 -7 17 6 21 6 21 -15 -3 -22 -25
-22 -25 -18 -3 3 13 0 26 -5 30 -6 3 -9 2 -6 -3 3 -5 -1 -15 -9 -23 -13 -12
-14 -9 -10 23 3 20 1 36 -4 36 -5 0 -9 -6 -9 -12 0 -9 -3 -9 -9 1 -5 8 -16 11
-25 8 -9 -4 -16 -2 -16 3 0 9 38 15 63 11 4 0 7 4 7 10 0 5 5 7 10 4 14 -9 12
1 -4 17 -11 12 -11 17 1 34 15 18 15 18 8 -3 -4 -14 -2 -23 4 -23 14 0 25 45
17 66 -6 15 -4 15 11 3 9 -8 14 -9 10 -2 -9 14 2 45 14 38 5 -3 11 6 15 20 6
25 24 35 24 14 0 -8 6 -7 16 2 15 12 16 11 10 -9 -4 -12 -4 -22 1 -22 5 0 9
10 10 21 1 12 3 23 5 25 10 10 72 13 83 4 9 -8 14 -6 18 4 4 10 17 14 42 12
19 -2 35 0 35 5 0 5 7 6 15 3 9 -4 15 0 15 7 1 9 6 7 16 -6 11 -14 18 -16 21
-7 3 6 9 10 14 6 5 -3 19 2 31 10 24 17 68 22 68 8z m-590 -12 c-14 -4 -32 -8
-40 -9 -13 -1 -13 0 0 9 8 5 26 9 40 9 l25 -1 -25 -8z m-265 -18 c-12 -10
-217 -41 -355 -53 -133 -11 -250 -11 -250 1 0 6 21 10 48 10 26 0 119 6 207
15 273 26 340 32 350 34 6 0 6 -2 0 -7z m1465 -107 l0 -115 -35 0 c-38 0 -48
19 -15 27 18 5 20 14 20 94 0 82 -2 89 -20 89 -11 0 -20 5 -20 10 0 6 16 10
35 10 l35 0 0 -115z m1880 105 c0 -5 -7 -10 -15 -10 -12 0 -15 -17 -15 -90 0
-73 3 -90 15 -90 8 0 15 -7 15 -15 0 -10 -10 -15 -30 -15 l-30 0 0 115 0 115
30 0 c17 0 30 -4 30 -10z m-1650 -40 c0 -28 2 -30 20 -20 14 8 26 8 40 0 17
-9 20 -21 20 -70 0 -33 -4 -60 -10 -60 -5 0 -10 22 -10 49 0 59 -23 88 -46 56
-8 -10 -14 -38 -14 -62 0 -24 -4 -43 -10 -43 -6 0 -10 37 -10 90 0 53 4 90 10
90 6 0 10 -14 10 -30z m-1420 -10 c0 -16 -4 -30 -10 -30 -5 0 -10 14 -10 30 0
17 5 30 10 30 6 0 10 -13 10 -30z m50 -1 c0 -17 -4 -28 -10 -24 -5 3 -10 17
-10 31 0 13 5 24 10 24 6 0 10 -14 10 -31z m565 -9 c15 0 24 -4 21 -9 -3 -5
-15 -7 -26 -4 -25 7 -34 -16 -26 -62 6 -29 11 -35 31 -35 14 0 25 -4 25 -10 0
-16 -47 -12 -64 6 -11 10 -14 27 -11 55 5 34 2 41 -17 48 l-22 8 22 5 c12 4
22 14 23 25 0 15 2 14 9 -4 6 -16 18 -23 35 -23z m385 8 c0 -25 -3 -29 -10
-18 -13 20 -13 50 0 50 6 0 10 -15 10 -32z m50 2 c0 -16 -2 -30 -4 -30 -2 0
-6 14 -8 30 -3 17 -1 30 4 30 4 0 8 -13 8 -30z m2130 10 c0 -15 7 -20 25 -20
14 0 25 -4 25 -10 0 -5 -12 -10 -26 -10 -23 0 -25 -3 -22 -42 2 -36 7 -44 26
-46 35 -5 26 -24 -10 -20 -32 3 -33 4 -36 56 -3 44 -6 52 -23 52 -25 0 -25 16
1 23 11 3 20 12 20 21 0 9 5 16 10 16 6 0 10 -9 10 -20z m700 -12 c0 -25 -3
-29 -10 -18 -13 20 -13 50 0 50 6 0 10 -15 10 -32z m-4266 -14 c21 -20 21 -97
1 -114 -8 -7 -26 -10 -40 -8 -21 4 -25 1 -25 -18 0 -13 -4 -24 -10 -24 -6 0
-10 35 -10 86 0 68 3 85 13 81 8 -3 20 -1 28 4 19 12 25 11 43 -7z m130 6 c20
-7 26 -16 26 -40 0 -28 -2 -30 -40 -30 -43 0 -43 0 -34 -24 7 -19 35 -21 52
-4 17 17 28 2 12 -17 -18 -22 -67 -19 -80 4 -18 35 -12 88 12 105 27 19 21 18
52 6z m1586 -11 c0 -12 -29 -24 -37 -16 -3 4 -3 13 0 21 6 16 37 11 37 -5z
m308 -7 c29 -37 1 -112 -43 -112 -33 0 -55 26 -55 64 0 66 59 95 98 48z m266
18 c20 -7 26 -16 26 -40 0 -28 -2 -30 -40 -30 -43 0 -43 0 -34 -24 7 -19 35
-21 52 -4 17 17 28 2 12 -17 -18 -22 -67 -19 -80 4 -18 35 -12 88 12 105 27
19 21 18 52 6z m157 0 c10 -6 19 -20 19 -30 0 -26 -7 -25 -31 3 -19 22 -19 22
-34 3 -8 -11 -15 -39 -15 -63 0 -24 -4 -43 -10 -43 -6 0 -10 29 -10 66 0 51 3
65 13 61 8 -3 20 -1 28 4 18 11 17 11 40 -1z m1457 -53 c5 -53 -13 -80 -49
-75 -25 4 -29 1 -29 -19 0 -13 -4 -23 -10 -23 -6 0 -10 35 -10 86 0 68 3 85
13 81 8 -3 20 -1 28 4 23 14 54 -14 57 -54z m116 53 c20 -7 26 -16 26 -40 0
-28 -2 -30 -40 -30 -43 0 -43 0 -34 -24 7 -19 35 -21 52 -4 17 17 28 2 12 -17
-18 -22 -67 -19 -80 4 -18 35 -12 88 12 105 27 19 21 18 52 6z m-4150 -22
c-23 -74 -53 -143 -64 -146 -9 -3 -10 4 -6 25 5 20 0 48 -13 81 -25 62 -6 75
20 14 17 -38 17 -38 38 21 13 33 36 37 25 5z m1284 10 c7 -7 12 -31 12 -55 0
-43 -17 -63 -54 -63 -39 0 -60 65 -36 111 12 22 59 26 78 7z m149 -58 l1 -65
-11 60 c-9 43 -17 61 -30 63 -20 4 -25 -7 -37 -74 l-8 -49 -1 65 -1 66 43 -1
42 0 2 -65z m803 25 c7 -25 16 -45 20 -45 4 0 13 20 20 45 7 25 18 45 25 45
10 0 8 -17 -8 -65 -14 -44 -26 -65 -37 -65 -11 0 -23 21 -37 65 -16 48 -18 65
-8 65 7 0 18 -20 25 -45z m1585 3 l18 -43 13 30 c7 17 13 36 14 43 0 6 7 12
16 12 11 0 14 -5 9 -17 -4 -10 -18 -48 -32 -85 -14 -38 -31 -68 -39 -68 -11 0
-11 5 -3 23 8 18 6 35 -10 78 -23 60 -25 69 -12 69 5 0 17 -19 26 -42z m-4155
-27 c0 -51 3 -59 21 -64 29 -8 14 -27 -22 -27 l-29 0 0 75 c0 60 3 75 15 75
12 0 15 -13 15 -59z m770 49 c0 -5 -22 -10 -50 -10 -27 0 -50 5 -50 10 0 6 23
10 50 10 28 0 50 -4 50 -10z m160 -18 c0 -15 -2 -15 -10 -2 -13 20 -13 33 0
25 6 -3 10 -14 10 -23z m3725 18 c4 -6 -15 -10 -49 -10 -31 0 -56 5 -56 10 0
6 22 10 49 10 28 0 53 -4 56 -10z m-4513 -42 c2 -36 7 -44 26 -46 35 -5 26
-24 -10 -20 -32 3 -33 4 -36 56 -2 30 1 52 7 52 5 0 11 -19 13 -42z m628 -18
c0 -5 -22 -10 -50 -10 -27 0 -50 5 -50 10 0 6 23 10 50 10 28 0 50 -4 50 -10z
m3885 0 c-3 -5 -28 -10 -56 -10 -27 0 -49 5 -49 10 0 6 25 10 56 10 34 0 53
-4 49 -10z m-1621 -37 c-10 -46 -13 -53 -24 -53 -11 0 -6 52 7 73 11 18 23 4
17 -20z m-861 2 c1 -5 -6 -11 -15 -13 -11 -2 -18 3 -18 13 0 17 30 18 33 0z
m-2463 -585 c0 -15 7 -20 28 -21 l27 -2 -27 -4 c-26 -4 -28 -8 -28 -54 0 -46
2 -49 25 -49 14 0 25 -4 25 -10 0 -14 -43 -13 -58 2 -7 7 -12 31 -12 55 0 36
-4 45 -22 53 l-23 9 23 0 c15 1 22 7 22 21 0 11 5 20 10 20 6 0 10 -9 10 -20z
m578 -26 l37 1 3 -51 c4 -61 -14 -84 -53 -66 -18 8 -25 8 -29 -1 -2 -7 -4 29
-4 78 1 50 3 78 5 64 4 -23 9 -26 41 -25z m402 1 c0 -52 18 -60 44 -20 9 14
21 25 27 25 7 0 5 -10 -5 -25 -21 -32 -20 -41 5 -76 15 -21 17 -29 7 -29 -8 0
-22 14 -31 30 -10 17 -25 30 -33 30 -9 0 -14 -11 -14 -30 0 -16 -4 -30 -10
-30 -6 0 -10 35 -10 85 0 50 4 85 10 85 6 0 10 -20 10 -45z m940 -40 c0 -50
-4 -85 -10 -85 -12 0 -14 11 -11 61 3 39 -17 63 -43 53 -13 -5 -16 -17 -14
-47 2 -34 7 -42 28 -48 23 -6 23 -7 6 -14 -30 -13 -51 8 -54 54 -4 52 12 74
50 69 24 -4 28 -1 28 19 0 13 5 23 10 23 6 0 10 -35 10 -85z m650 53 c0 -25
-3 -29 -10 -18 -13 20 -13 50 0 50 6 0 10 -15 10 -32z m50 2 c0 -16 -2 -30 -4
-30 -2 0 -6 14 -8 30 -3 17 -1 30 4 30 4 0 8 -13 8 -30z m-2442 -22 c7 -7 12
-31 12 -55 0 -43 -17 -63 -54 -63 -39 0 -60 65 -36 111 12 22 59 26 78 7z
m160 -57 l-2 -66 -3 55 c-7 96 -41 92 -45 -5 l-1 -50 -6 59 c-8 83 -31 88 -31
7 0 -34 -4 -61 -10 -61 -6 0 -10 28 -10 65 l0 64 55 0 55 -1 -2 -67z m420 57
c14 -14 16 -118 2 -118 -5 0 -10 5 -10 10 0 7 -7 7 -20 0 -32 -17 -60 -3 -60
30 0 29 15 40 56 40 28 0 31 12 8 31 -12 10 -20 10 -35 1 -26 -16 -34 -15 -19
3 15 18 61 20 78 3z m149 -3 c8 -24 -4 -30 -22 -11 -9 9 -20 16 -24 16 -18 0
-32 -30 -29 -62 2 -26 8 -34 27 -36 13 -2 27 2 32 9 4 8 11 10 15 6 12 -11
-17 -37 -42 -37 -42 0 -68 65 -44 111 13 24 78 27 87 4z m293 -52 c0 -80 -11
-103 -50 -103 -38 0 -39 18 -2 22 20 2 28 9 30 26 3 21 1 22 -17 13 -25 -14
-27 -14 -45 5 -19 18 -21 75 -4 92 6 6 29 11 50 10 l38 -1 0 -64z m144 45 c17
-27 -2 -33 -23 -7 -28 35 -51 12 -51 -52 0 -27 -4 -49 -10 -49 -6 0 -10 28
-10 64 l0 64 41 -2 c27 0 46 -7 53 -18z m134 10 c17 -17 15 -84 -4 -102 -36
-37 -84 -7 -84 53 0 44 14 61 50 61 14 0 31 -5 38 -12z m72 -30 c0 -52 11 -71
36 -66 15 2 20 14 22 56 2 28 8 52 13 52 6 0 9 -24 7 -57 -3 -53 -5 -58 -32
-68 -24 -8 -31 -6 -47 14 -20 25 -27 111 -9 111 6 0 10 -19 10 -42z m220 16
c13 -33 13 -104 0 -104 -5 0 -10 19 -10 43 0 50 -19 83 -44 74 -12 -5 -16 -20
-16 -62 0 -30 -4 -55 -10 -55 -6 0 -10 28 -10 63 l0 64 40 1 c35 2 42 -2 50
-24z m430 11 c18 -22 5 -31 -15 -11 -9 9 -20 16 -24 16 -31 0 -44 -86 -15 -97
9 -3 25 -1 36 6 27 16 38 3 14 -15 -44 -32 -86 -5 -86 55 0 20 5 42 12 49 17
17 63 15 78 -3z m145 4 c11 -17 -1 -21 -23 -8 -22 14 -56 5 -50 -12 2 -7 19
-17 38 -23 37 -12 49 -38 30 -61 -16 -20 -64 -19 -80 0 -16 19 -5 34 12 17 7
-7 23 -12 36 -12 35 0 24 32 -14 42 -60 15 -51 68 12 68 18 0 36 -5 39 -11z
m140 0 c11 -17 -3 -23 -20 -9 -18 15 -45 6 -45 -15 0 -9 9 -15 24 -15 24 0 56
-23 56 -40 0 -28 -48 -48 -84 -34 -17 7 -22 34 -6 34 6 0 10 -5 10 -11 0 -6
12 -9 28 -7 38 4 34 30 -6 40 -35 9 -48 28 -38 53 6 17 71 21 81 4z m-2015
-39 c0 -5 -18 -10 -40 -10 -22 0 -40 5 -40 10 0 6 18 10 40 10 22 0 40 -4 40
-10z m1580 0 c0 -5 -16 -10 -35 -10 -19 0 -35 5 -35 10 0 6 16 10 35 10 19 0
35 -4 35 -10z m730 -250 c0 -5 -7 -10 -15 -10 -11 0 -15 -11 -15 -38 0 -21 -5
-43 -12 -50 -15 -15 -58 -16 -58 -2 0 6 11 10 25 10 22 0 25 4 25 38 0 21 5
43 12 50 15 15 38 16 38 2z m-1758 -15 c0 -5 -5 -11 -11 -13 -6 -2 -11 4 -11
13 0 9 5 15 11 13 6 -2 11 -8 11 -13z m2445 -11 c-9 -9 -28 6 -21 18 4 6 10 6
17 -1 6 -6 8 -13 4 -17z m-897 -26 c0 -25 -3 -29 -10 -18 -13 20 -13 50 0 50
6 0 10 -15 10 -32z m50 2 c0 -16 -2 -30 -4 -30 -2 0 -6 14 -8 30 -3 17 -1 30
4 30 4 0 8 -13 8 -30z m-877 -25 c1 -5 -6 -11 -15 -13 -11 -2 -18 3 -18 13 0
17 30 18 33 0z m-843 -35 c0 -5 -18 -10 -40 -10 -22 0 -40 5 -40 10 0 6 18 10
40 10 22 0 40 -4 40 -10z m1160 -46 c0 -8 -4 -12 -10 -9 -5 3 -10 10 -10 16 0
5 5 9 10 9 6 0 10 -7 10 -16z"/>
<path d="M194 4719 c-3 -6 -2 -15 4 -21 15 -15 46 -5 50 15 3 12 -3 17 -22 17
-14 0 -28 -5 -32 -11z"/>
<path d="M350 4775 c-19 -22 -8 -70 15 -70 16 0 21 8 23 36 3 40 -18 59 -38
34z"/>
<path d="M1207 4774 c-13 -13 -7 -61 8 -74 26 -22 47 -4 43 37 -2 29 -8 39
-23 41 -12 2 -24 0 -28 -4z"/>
<path d="M1502 4778 c-19 -19 -14 -28 18 -28 17 0 30 4 30 8 0 9 -21 32 -30
32 -3 0 -11 -5 -18 -12z"/>
<path d="M2786 4755 c-8 -32 10 -67 32 -63 12 2 18 15 20 46 3 39 1 42 -21 42
-18 0 -27 -7 -31 -25z"/>
<path d="M3230 4775 c-19 -22 -8 -70 15 -70 16 0 21 8 23 36 3 40 -18 59 -38
34z"/>
<path d="M3364 4719 c-3 -6 -2 -15 4 -21 15 -15 46 -5 50 15 3 12 -3 17 -22
17 -14 0 -28 -5 -32 -11z"/>
<path d="M3802 4778 c-19 -19 -14 -28 18 -28 32 0 42 23 14 34 -20 8 -18 8
-32 -6z"/>
<path d="M4950 4771 c-10 -19 -8 -21 20 -21 25 0 31 4 28 17 -5 26 -35 28 -48
4z"/>
<path d="M1356 4415 c-30 -30 -15 -90 20 -83 15 3 19 12 19 47 0 48 -14 61
-39 36z"/>
<path d="M1071 4421 c-20 -13 -10 -85 13 -89 23 -5 36 14 36 50 0 30 -28 52
-49 39z"/>
<path d="M1503 4423 c-26 -10 -13 -33 17 -33 32 0 37 9 18 28 -13 13 -16 13
-35 5z"/>
<path d="M2075 4414 c-28 -28 -13 -84 22 -84 18 0 36 38 29 65 -7 29 -31 38
-51 19z"/>
<path d="M2365 4416 c-11 -8 -16 -23 -13 -46 3 -30 7 -35 28 -35 22 0 25 5 28
41 3 46 -14 62 -43 40z"/>
<path d="M201 4056 c-7 -8 -11 -30 -9 -48 2 -28 7 -33 28 -33 21 0 26 5 28 33
3 31 -11 62 -28 62 -4 0 -13 -6 -19 -14z"/>
<path d="M347 4063 c-17 -16 -5 -33 23 -33 32 0 37 9 18 28 -13 13 -31 16 -41
5z"/>
<path d="M925 4056 c-11 -8 -16 -23 -13 -46 3 -30 7 -35 28 -35 22 0 25 5 28
41 3 46 -14 62 -43 40z"/>
<path d="M1215 4056 c-11 -8 -16 -23 -13 -46 3 -30 7 -35 28 -35 22 0 25 5 28
41 3 46 -14 62 -43 40z"/>
<path d="M3660 3680 c0 -13 7 -20 20 -20 13 0 20 7 20 20 0 13 -7 20 -20 20
-13 0 -20 -7 -20 -20z"/>
<path d="M1350 3691 c-10 -19 -8 -21 20 -21 25 0 31 4 28 17 -5 26 -35 28 -48
4z"/>
<path d="M2070 3691 c-10 -19 -8 -21 20 -21 25 0 31 4 28 17 -5 26 -35 28 -48
4z"/>
<path d="M2942 3698 c-19 -19 -14 -28 18 -28 17 0 30 4 30 8 0 9 -21 32 -30
32 -3 0 -11 -5 -18 -12z"/>
<path d="M3940 3629 c0 -15 5 -20 22 -17 34 5 37 38 4 38 -20 0 -26 -5 -26
-21z"/>
<path d="M4660 3629 c0 -15 5 -20 22 -17 34 5 37 38 4 38 -20 0 -26 -5 -26
-21z"/>
<path d="M207 3333 c-14 -13 -6 -33 13 -33 13 0 20 7 20 20 0 19 -20 27 -33
13z"/>
<path d="M4817 3333 c-14 -13 -6 -33 13 -33 13 0 20 7 20 20 0 19 -20 27 -33
13z"/>
<path d="M484 3279 c-3 -6 -2 -15 4 -21 15 -15 46 -5 50 15 3 12 -3 17 -22 17
-14 0 -28 -5 -32 -11z"/>
<path d="M1204 3279 c-3 -6 -2 -15 4 -21 15 -15 46 -5 50 15 3 12 -3 17 -22
17 -14 0 -28 -5 -32 -11z"/>
<path d="M3800 3331 c-10 -19 -8 -21 20 -21 25 0 31 4 28 17 -5 26 -35 28 -48
4z"/>
<path d="M4045 2659 c-4 -6 -5 -12 -2 -15 2 -3 7 2 10 11 7 17 1 20 -8 4z"/>
<path d="M3961 2599 c-13 -10 -19 -19 -15 -19 13 1 48 29 43 34 -2 2 -15 -4
-28 -15z"/>
<path d="M3968 2574 c-27 -14 -38 -34 -19 -34 5 0 16 -3 24 -6 10 -3 17 4 21
22 9 34 7 35 -26 18z"/>
<path d="M2839 2783 c-7 -10 -10 -15 -6 -12 5 4 18 -3 30 -15 44 -41 120 -100
133 -102 7 -1 10 4 7 13 -4 11 -8 12 -13 2 -5 -8 -17 2 -35 29 -15 23 -31 39
-35 37 -5 -3 -22 11 -38 30 -27 33 -30 35 -43 18z"/>
<path d="M2980 2765 c0 -2 14 -13 30 -25 23 -17 30 -18 30 -7 0 8 -13 20 -30
26 -16 5 -30 8 -30 6z"/>
<path d="M2615 2732 c0 -25 5 -34 27 -41 33 -12 35 -8 11 17 -10 10 -23 27
-28 37 -9 15 -11 13 -10 -13z"/>
<path d="M2674 2740 c0 -13 5 -19 13 -16 7 3 13 2 13 -2 0 -5 7 -17 15 -28 15
-19 15 -19 8 1 -10 25 -36 65 -43 65 -3 0 -6 -9 -6 -20z"/>
<path d="M2756 2736 c3 -8 12 -17 20 -20 12 -4 12 -2 4 14 -12 23 -32 27 -24
6z"/>
<path d="M2852 2721 c-16 -10 0 -25 35 -34 22 -5 22 -4 5 19 -19 26 -22 27
-40 15z"/>
<path d="M3085 2687 c10 -15 20 -25 23 -22 3 3 -5 16 -17 28 l-23 22 17 -28z"/>
<path d="M2750 2700 c-8 -29 -5 -39 12 -43 11 -3 17 -10 14 -15 -3 -6 0 -12 8
-15 10 -4 12 0 9 14 -3 10 -9 19 -14 19 -6 0 -14 10 -19 23 -5 12 -9 20 -10
17z"/>
<path d="M2510 2678 c0 -9 5 -20 11 -23 17 -11 20 0 4 21 -13 17 -14 17 -15 2z"/>
<path d="M2682 2666 c2 -19 5 -22 15 -15 6 6 9 17 6 25 -9 23 -23 16 -21 -10z"/>
<path d="M3040 2682 c0 -7 3 -12 8 -12 4 0 12 -10 17 -22 6 -12 17 -23 25 -25
11 -3 11 -1 -2 10 -10 8 -15 16 -13 19 3 3 -4 13 -15 23 -11 10 -20 13 -20 7z"/>
<path d="M2620 2659 c0 -11 5 -17 10 -14 6 3 10 13 10 21 0 8 -4 14 -10 14 -5
0 -10 -9 -10 -21z"/>
<path d="M2556 2652 c-4 -7 -3 -12 2 -12 6 0 13 -11 16 -25 4 -14 11 -25 16
-25 6 0 10 -7 10 -15 0 -8 13 -24 29 -36 19 -14 27 -28 24 -38 -4 -14 -3 -14
6 -1 8 12 14 11 35 -10 15 -13 26 -19 26 -13 0 5 -9 18 -21 29 -12 10 -29 35
-40 54 l-18 35 -1 -29 c0 -24 -2 -27 -15 -16 -12 10 -13 15 -4 21 8 4 3 12
-15 24 -14 9 -24 21 -21 25 2 4 -2 15 -9 25 -9 13 -15 15 -20 7z"/>
<path d="M2195 2623 c8 -15 12 -30 10 -33 -2 -4 7 -12 22 -19 42 -19 47 6 9
46 -40 41 -60 44 -41 6z"/>
<path d="M2707 2644 c-3 -3 1 -13 9 -21 8 -9 18 -12 21 -9 4 4 0 13 -8 21 -8
9 -18 13 -22 9z"/>
<path d="M2412 2618 c2 -13 9 -28 17 -34 8 -7 12 -21 9 -37 -3 -17 -1 -27 7
-27 8 0 9 12 5 38 -10 53 -21 82 -32 82 -5 0 -8 -10 -6 -22z"/>
<path d="M2647 2622 c-2 -4 7 -17 20 -29 13 -13 23 -17 23 -10 0 15 -38 49
-43 39z"/>
<path d="M3020 2626 c0 -2 7 -7 16 -10 8 -3 12 -2 9 4 -6 10 -25 14 -25 6z"/>
<path d="M3160 2621 c0 -5 7 -15 17 -22 15 -13 15 -12 4 9 -12 23 -21 28 -21
13z"/>
<path d="M2761 2613 c-1 -6 -3 -17 -6 -25 -3 -8 6 -18 25 -25 16 -6 30 -18 30
-26 0 -8 16 -24 35 -36 19 -11 35 -16 35 -11 0 6 -5 10 -11 10 -5 0 -7 5 -4
10 3 6 3 15 -1 21 -5 8 -9 8 -14 -1 -7 -11 -48 29 -77 76 -6 10 -12 14 -12 7z"/>
<path d="M2831 2601 c7 -10 21 -24 32 -31 18 -11 17 -8 -4 18 -26 34 -46 43
-28 13z"/>
<path d="M3066 2593 c-6 -14 -5 -15 5 -6 7 7 10 15 7 18 -3 3 -9 -2 -12 -12z"/>
<path d="M2350 2589 c0 -6 9 -13 19 -16 12 -3 17 -11 14 -19 -3 -9 1 -14 12
-14 17 0 14 11 -13 43 -17 19 -32 22 -32 6z"/>
<path d="M2520 2591 c0 -5 7 -14 15 -21 16 -14 18 -10 9 14 -6 17 -24 22 -24
7z"/>
<path d="M2291 2562 c-1 -19 3 -31 9 -27 6 4 8 -12 5 -42 -3 -33 -2 -43 5 -33
5 8 7 23 4 34 -5 16 -2 18 19 12 24 -6 24 -5 14 19 -7 14 -20 27 -29 30 -9 3
-19 14 -21 23 -3 9 -5 2 -6 -16z"/>
<path d="M2700 2585 c0 -16 47 -71 55 -63 3 3 -7 21 -24 40 -17 18 -31 29 -31
23z"/>
<path d="M3095 2570 c3 -5 8 -10 11 -10 2 0 4 5 4 10 0 6 -5 10 -11 10 -5 0
-7 -4 -4 -10z"/>
<path d="M2577 2550 c-3 -12 0 -20 8 -20 8 0 11 8 8 20 -3 11 -7 20 -8 20 -1
0 -5 -9 -8 -20z"/>
<path d="M2217 2533 c3 -10 10 -23 14 -29 5 -6 7 -14 4 -17 -3 -4 -2 -5 1 -2
4 2 15 0 25 -6 15 -7 17 -6 13 6 -4 8 -10 15 -14 15 -4 0 -11 11 -14 25 -4 14
-13 25 -21 25 -9 0 -12 -6 -8 -17z"/>
<path d="M2990 2529 c0 -5 5 -7 10 -4 6 3 10 8 10 11 0 2 -4 4 -10 4 -5 0 -10
-5 -10 -11z"/>
<path d="M2150 2511 c0 -12 5 -21 10 -21 6 0 10 6 10 14 0 8 -4 18 -10 21 -5
3 -10 -3 -10 -14z"/>
<path d="M2772 2501 c4 -13 18 -16 19 -4 0 4 -5 9 -11 12 -7 2 -11 -2 -8 -8z"/>
<path d="M2733 2478 c1 -16 5 -28 9 -28 10 0 9 9 -2 35 -8 17 -8 16 -7 -7z"/>
<path d="M3221 2497 c2 -1 12 -9 22 -16 15 -12 17 -12 11 3 -3 9 -13 16 -22
16 -8 0 -13 -1 -11 -3z"/>
<path d="M2455 2480 c4 -6 11 -8 16 -5 14 9 11 15 -7 15 -8 0 -12 -5 -9 -10z"/>
<path d="M2481 2476 c-8 -10 -9 -16 -1 -21 5 -3 13 1 16 10 9 22 -1 29 -15 11z"/>
<path d="M2636 2477 c3 -10 9 -15 12 -12 3 3 0 11 -7 18 -10 9 -11 8 -5 -6z"/>
<path d="M3180 2484 c0 -10 50 -54 62 -54 4 0 8 -7 8 -17 0 -9 3 -13 7 -10 9
9 -29 77 -39 71 -5 -3 -15 0 -23 6 -8 7 -15 9 -15 4z"/>
<path d="M2825 2452 c17 -15 32 -27 34 -25 9 6 -31 53 -47 53 -13 0 -10 -7 13
-28z"/>
<path d="M2180 2456 c0 -2 7 -9 15 -16 12 -10 15 -10 15 4 0 9 -7 16 -15 16
-8 0 -15 -2 -15 -4z"/>
<path d="M3152 2444 c10 -10 20 -15 24 -12 3 4 -5 12 -18 18 -22 12 -22 12 -6
-6z"/>
<path d="M2070 2436 c0 -8 4 -17 9 -20 5 -4 7 3 4 14 -6 23 -13 26 -13 6z"/>
<path d="M2870 2432 c0 -12 4 -22 9 -22 10 0 9 26 -2 36 -4 4 -7 -2 -7 -14z"/>
<path d="M2770 2430 c0 -5 5 -10 10 -10 6 0 10 5 10 10 0 6 -4 10 -10 10 -5 0
-10 -4 -10 -10z"/>
<path d="M2240 2419 c0 -5 5 -7 10 -4 6 3 10 8 10 11 0 2 -4 4 -10 4 -5 0 -10
-5 -10 -11z"/>
<path d="M2700 2421 c0 -5 7 -12 16 -15 14 -5 15 -4 4 9 -14 17 -20 19 -20 6z"/>
<path d="M3229 2388 c4 -12 13 -24 19 -26 7 -2 7 5 -1 22 -15 32 -30 35 -18 4z"/>
<path d="M1900 2380 c-9 -16 -8 -18 5 -14 8 4 15 12 15 20 0 20 -7 17 -20 -6z"/>
<path d="M2745 2391 c-3 -5 -1 -12 5 -16 5 -3 10 1 10 9 0 18 -6 21 -15 7z"/>
<path d="M3055 2390 c3 -5 8 -10 11 -10 2 0 4 5 4 10 0 6 -5 10 -11 10 -5 0
-7 -4 -4 -10z"/>
<path d="M2900 2386 c0 -2 7 -7 16 -10 8 -3 12 -2 9 4 -6 10 -25 14 -25 6z"/>
<path d="M1732 2324 c-1 -13 0 -24 2 -24 7 0 14 40 7 44 -4 3 -8 -6 -9 -20z"/>
<path d="M2784 2339 c-3 -5 -18 -9 -34 -9 -16 0 -39 -4 -52 -9 -13 -5 -68 -19
-123 -31 -117 -26 -163 -39 -265 -75 -80 -28 -173 -47 -164 -33 3 4 -6 8 -19
8 -13 0 -36 10 -51 21 -21 17 -30 19 -39 10 -9 -9 -8 -15 7 -23 15 -8 16 -12
5 -19 -9 -6 -3 -7 16 -3 l30 7 -22 -22 c-27 -25 -30 -26 -51 -5 -10 11 -17 13
-20 5 -2 -6 -8 -11 -13 -11 -4 0 -6 7 -3 15 4 8 1 15 -7 15 -16 0 -73 -64 -60
-68 6 -2 6 -13 -2 -29 -9 -21 -9 -27 1 -31 11 -3 11 -6 0 -16 -7 -6 -11 -10
-9 -9 2 2 10 -2 18 -9 8 -6 13 -7 12 -2 -6 19 12 52 27 50 17 -3 19 -21 2 -21
-15 0 -22 -21 -9 -30 6 -3 8 0 5 8 -9 24 87 15 124 -12 38 -26 72 -72 73 -98
1 -23 33 -78 45 -78 34 0 114 116 106 152 -2 7 6 13 18 13 11 0 20 5 20 10 0
6 7 10 16 10 8 0 12 -4 9 -10 -6 -10 17 -17 75 -23 27 -3 24 -4 -15 -6 -49 -2
-49 -2 -25 -16 14 -8 19 -14 12 -15 -10 0 -10 -5 -2 -21 9 -15 15 -18 25 -9 7
6 11 20 8 30 -4 15 0 20 16 20 12 0 19 -4 16 -10 -3 -5 1 -10 9 -10 9 0 16 7
16 15 0 8 -5 15 -12 15 -26 0 32 39 63 43 33 4 33 4 -6 6 -53 2 -86 11 -79 22
3 5 -10 10 -28 10 -21 1 -26 3 -13 6 11 3 24 9 30 14 8 8 -22 5 -65 -5 -3 0
-6 4 -7 9 -1 6 -12 13 -25 16 -24 5 57 27 242 64 100 20 105 22 89 41 -9 11
-9 14 0 14 8 0 7 6 -3 16 -18 17 -22 64 -6 64 6 0 10 -9 10 -19 0 -10 7 -22
16 -25 24 -9 27 -7 13 10 -10 13 -10 17 2 25 12 7 12 9 -1 9 -8 1 -4 6 10 11
13 6 36 7 50 4 17 -4 21 -3 11 4 -11 7 -9 10 10 13 l24 3 -22 7 c-13 3 -26 2
-29 -3z m-214 -84 c0 -2 -18 -9 -40 -15 -22 -6 -40 -15 -40 -20 0 -6 -7 -10
-15 -10 -28 0 -15 16 28 32 43 17 67 22 67 13z m-40 -53 c0 -11 -80 -36 -88
-28 -9 9 4 18 40 26 46 11 48 11 48 2z m135 -2 c-4 -6 -10 -8 -15 -5 -4 3 -10
1 -12 -5 -1 -5 -30 -12 -62 -15 -70 -5 -69 -1 5 19 65 18 92 20 84 6z m-335
-20 c0 -5 -8 -10 -17 -10 -15 0 -16 2 -3 10 19 12 20 12 20 0z m95 0 c12 -2
-18 -14 -55 -23 -20 -5 -26 -3 -26 12 0 14 7 17 36 15 19 -1 40 -3 45 -4z
m-298 -6 c-3 -3 -12 -4 -19 -1 -8 3 -5 6 6 6 11 1 17 -2 13 -5z m318 -24 c-11
-5 -29 -9 -40 -9 -17 -1 -17 1 -5 9 8 5 26 9 40 9 23 0 23 -1 5 -9z m-264 -33
c-13 -13 -26 -3 -16 12 3 6 11 8 17 5 6 -4 6 -10 -1 -17z m189 13 c-8 -5 -24
-9 -35 -9 l-20 0 20 9 c11 5 27 9 35 9 13 1 13 0 0 -9z m-278 -40 c-4 -3 -11
-9 -15 -15 -5 -6 -7 -3 -4 6 3 9 0 22 -6 29 -8 9 -5 8 10 -1 12 -7 19 -16 15
-19z m44 -28 c-9 -9 -37 8 -31 18 5 8 11 7 21 -1 8 -6 12 -14 10 -17z m68
-170 c-17 -16 -19 -15 -28 16 -7 21 -6 21 18 11 22 -10 23 -13 10 -27z"/>
<path d="M2908 2343 c7 -3 16 -2 19 1 4 3 -2 6 -13 5 -11 0 -14 -3 -6 -6z"/>
<path d="M2868 2333 c7 -3 16 -2 19 1 4 3 -2 6 -13 5 -11 0 -14 -3 -6 -6z"/>
<path d="M2576 2313 c-6 -14 -5 -15 5 -6 7 7 10 15 7 18 -3 3 -9 -2 -12 -12z"/>
<path d="M3194 2319 c-2 -4 9 -9 26 -11 16 -2 26 0 23 5 -3 5 3 7 13 4 11 -4
44 -2 74 3 51 8 48 8 -38 7 -51 0 -95 -4 -98 -8z"/>
<path d="M1655 2310 c-3 -5 -2 -17 3 -26 8 -14 10 -12 10 9 0 29 -3 33 -13 17z"/>
<path d="M1581 2294 c0 -11 3 -14 6 -6 3 7 2 16 -1 19 -3 4 -6 -2 -5 -13z"/>
<path d="M2750 2280 c0 -5 5 -10 11 -10 5 0 7 -5 3 -12 -4 -7 -3 -8 5 -4 9 6
9 11 0 22 -14 17 -19 18 -19 4z"/>
<path d="M1700 2264 c0 -8 5 -12 10 -9 6 4 8 11 5 16 -9 14 -15 11 -15 -7z"/>
<path d="M2790 2276 c0 -2 9 -6 20 -9 11 -3 18 -1 14 4 -5 9 -34 13 -34 5z"/>
<path d="M3165 2270 c3 -5 13 -10 21 -10 8 0 14 5 14 10 0 6 -9 10 -21 10 -11
0 -17 -4 -14 -10z"/>
<path d="M2900 2260 c0 -5 -8 -10 -17 -11 -10 0 -13 -3 -6 -5 7 -3 21 -1 32 5
14 8 20 8 23 -1 3 -7 9 -8 18 -3 11 7 10 10 -6 16 -27 11 -44 11 -44 -1z"/>
<path d="M2786 2252 c-3 -5 11 -15 31 -23 34 -13 34 -14 12 -20 -22 -6 -21 -7
6 -8 17 0 37 4 45 10 13 9 12 10 -2 5 -10 -3 -18 -1 -18 4 0 6 -6 10 -14 10
-7 0 -19 7 -26 15 -14 17 -26 19 -34 7z"/>
<path d="M1565 2240 c3 -5 8 -10 11 -10 2 0 4 5 4 10 0 6 -5 10 -11 10 -5 0
-7 -4 -4 -10z"/>
<path d="M2987 2240 c-20 -4 -40 -10 -44 -13 -11 -12 51 -6 87 8 38 15 19 17
-43 5z"/>
<path d="M3251 2208 l2 -43 6 35 c4 23 9 31 14 23 10 -16 27 -17 27 -2 0 5 -4
8 -9 5 -5 -3 -11 1 -15 9 -11 30 -26 14 -25 -27z"/>
<path d="M2745 2230 c3 -5 -2 -10 -11 -10 -10 0 -15 -3 -11 -6 3 -3 21 -3 39
1 29 7 30 9 13 16 -28 11 -37 11 -30 -1z"/>
<path d="M3162 2212 c-9 -7 -7 -13 9 -27 15 -15 20 -16 17 -5 -2 11 5 14 27
13 28 -2 29 -1 11 12 -22 17 -45 19 -64 7z"/>
<path d="M1991 2203 c-1 -17 16 -25 25 -12 4 7 3 9 -4 5 -5 -3 -13 0 -15 6 -4
9 -6 10 -6 1z"/>
<path d="M2922 2188 c-8 -8 -38 -13 -75 -13 -34 1 -51 -1 -37 -4 19 -3 13 -7
-30 -17 l-55 -13 55 6 c30 3 67 5 82 5 15 -1 29 2 33 7 3 5 31 13 63 17 42 5
52 9 37 15 -30 12 -60 10 -73 -3z"/>
<path d="M3038 2193 c7 -3 16 -2 19 1 4 3 -2 6 -13 5 -11 0 -14 -3 -6 -6z"/>
<path d="M1155 2180 c-3 -5 -2 -10 4 -10 5 0 13 5 16 10 3 6 2 10 -4 10 -5 0
-13 -4 -16 -10z"/>
<path d="M3382 2170 c0 -14 2 -19 5 -12 2 6 2 18 0 25 -3 6 -5 1 -5 -13z"/>
<path d="M1128 2160 c-7 -24 -3 -38 8 -28 3 4 4 17 2 30 l-3 23 -7 -25z"/>
<path d="M1345 2170 c-3 -5 -1 -10 4 -10 6 0 11 5 11 10 0 6 -2 10 -4 10 -3 0
-8 -4 -11 -10z"/>
<path d="M2666 2161 c2 -3 -6 -11 -18 -18 -21 -12 -20 -13 15 -7 24 4 37 2 37
-5 0 -6 5 -11 10 -11 6 0 10 8 8 17 -2 12 6 19 27 24 21 4 13 6 -27 5 -32 0
-55 -2 -52 -5z"/>
<path d="M1891 2134 c0 -11 3 -14 6 -6 3 7 2 16 -1 19 -3 4 -6 -2 -5 -13z"/>
<path d="M2990 2141 c-8 -6 -17 -8 -21 -5 -4 2 -10 0 -14 -6 -3 -5 2 -10 12
-10 22 1 74 29 53 29 -8 1 -22 -3 -30 -8z"/>
<path d="M1490 2130 c0 -5 5 -10 10 -10 6 0 10 5 10 10 0 6 -4 10 -10 10 -5 0
-10 -4 -10 -10z"/>
<path d="M2440 2115 c-39 -11 -41 -13 -15 -14 17 0 44 6 60 14 38 17 14 17
-45 0z"/>
<path d="M1871 2070 c-7 -22 -9 -45 -6 -50 3 -6 1 -10 -6 -10 -7 0 -10 -3 -6
-6 3 -4 0 -13 -8 -20 -8 -8 -12 -21 -9 -29 4 -8 1 -15 -6 -15 -7 0 -10 -7 -6
-16 3 -8 2 -12 -4 -9 -6 3 -10 3 -10 -2 0 -4 -10 -20 -23 -35 -12 -14 -29 -36
-37 -47 -16 -24 -36 -27 -43 -8 -4 9 -6 9 -6 0 -1 -7 -8 -10 -16 -7 -18 7 -20
-7 -2 -25 10 -10 9 -11 -5 -6 -14 6 -18 2 -18 -14 0 -24 10 -27 29 -8 11 10
12 5 7 -25 -4 -21 -2 -39 4 -43 6 -4 7 1 3 12 -3 10 -2 15 2 11 9 -9 21 6 54
66 12 21 20 41 17 44 -9 9 25 58 48 68 16 7 25 5 39 -11 16 -19 16 -19 2 10
-17 34 -20 75 -5 75 6 0 10 9 10 19 0 11 4 22 10 26 5 3 7 12 3 20 -3 9 -1 21
4 28 18 23 23 47 9 47 -7 0 -18 -18 -25 -40z m-121 -274 c0 -3 -4 -8 -10 -11
-5 -3 -10 -1 -10 4 0 6 5 11 10 11 6 0 10 -2 10 -4z"/>
<path d="M2568 2103 c7 -3 16 -2 19 1 4 3 -2 6 -13 5 -11 0 -14 -3 -6 -6z"/>
<path d="M1099 2092 c-2 -7 -15 -14 -28 -17 -32 -6 -37 -13 -17 -21 10 -4 22
-2 29 5 13 13 31 15 22 2 -3 -5 -1 -12 5 -16 12 -7 12 11 1 40 -5 12 -9 15
-12 7z"/>
<path d="M2508 2093 c7 -3 16 -2 19 1 4 3 -2 6 -13 5 -11 0 -14 -3 -6 -6z"/>
<path d="M2608 2093 c7 -3 16 -2 19 1 4 3 -2 6 -13 5 -11 0 -14 -3 -6 -6z"/>
<path d="M3445 2091 c-3 -5 -1 -12 5 -16 5 -3 10 1 10 9 0 18 -6 21 -15 7z"/>
<path d="M1240 2079 c0 -5 5 -7 10 -4 6 3 10 8 10 11 0 2 -4 4 -10 4 -5 0 -10
-5 -10 -11z"/>
<path d="M1460 2075 c0 -5 5 -17 10 -25 5 -8 10 -10 10 -5 0 6 -5 17 -10 25
-5 8 -10 11 -10 5z"/>
<path d="M2855 2040 c-3 -5 2 -10 11 -10 16 0 16 -1 -2 -15 -19 -14 -18 -14 4
-15 17 0 22 6 22 25 0 25 -23 35 -35 15z"/>
<path d="M1483 2013 c1 -13 4 -23 8 -23 4 0 5 -27 3 -59 -4 -45 -1 -63 11 -75
12 -12 13 -16 3 -16 -9 0 -9 -3 -2 -8 6 -4 19 -22 28 -40 9 -18 25 -36 34 -39
9 -4 20 -11 24 -17 12 -19 19 1 9 27 -6 14 -22 31 -37 39 -21 10 -30 25 -41
70 -13 51 -13 62 0 88 9 17 11 30 5 30 -5 0 -18 10 -28 23 l-19 22 2 -22z"/>
<path d="M2540 1990 c-10 -18 -9 -22 9 -27 19 -5 19 -7 6 -26 -8 -12 -15 -26
-15 -32 0 -5 4 -3 10 5 7 12 12 11 31 -5 19 -17 21 -17 16 -3 -3 9 -9 32 -12
52 -9 48 -30 64 -45 36z"/>
<path d="M2645 1980 c-3 -5 1 -10 10 -10 9 0 13 5 10 10 -3 6 -8 10 -10 10 -2
0 -7 -4 -10 -10z"/>
<path d="M2648 1953 c7 -3 16 -2 19 1 4 3 -2 6 -13 5 -11 0 -14 -3 -6 -6z"/>
<path d="M2364 1939 c-4 -7 -3 -9 4 -5 5 3 13 0 15 -6 4 -9 6 -10 6 -1 1 17
-16 25 -25 12z"/>
<path d="M2607 1932 c3 -9 11 -23 17 -31 8 -11 8 -15 -1 -18 -16 -6 25 -63 44
-63 17 0 17 37 1 55 -30 33 -38 45 -38 54 0 5 -7 11 -14 14 -11 4 -13 1 -9
-11z"/>
<path d="M2478 1933 c6 -2 10 -9 6 -14 -3 -5 2 -9 10 -9 9 0 16 7 16 15 0 9
-9 15 -22 14 -13 0 -17 -3 -10 -6z"/>
<path d="M2667 1934 c-7 -13 19 -47 33 -42 8 2 5 12 -8 27 -10 14 -21 20 -25
15z"/>
<path d="M2780 1930 c0 -5 7 -10 15 -10 8 0 15 5 15 10 0 6 -7 10 -15 10 -8 0
-15 -4 -15 -10z"/>
<path d="M2380 1901 c0 -5 6 -14 14 -20 12 -10 13 -8 9 8 -5 21 -23 30 -23 12z"/>
<path d="M2418 1893 c7 -3 16 -2 19 1 4 3 -2 6 -13 5 -11 0 -14 -3 -6 -6z"/>
<path d="M2458 1888 c5 -5 16 -8 23 -6 8 3 3 7 -10 11 -17 4 -21 3 -13 -5z"/>
<path d="M2727 1880 c3 -11 9 -20 14 -20 4 0 7 9 6 20 -1 11 -7 20 -13 20 -7
0 -10 -8 -7 -20z"/>
<path d="M2350 1870 c0 -4 15 -12 33 -17 17 -5 31 -15 30 -21 -2 -7 2 -12 7
-12 6 0 10 5 10 10 0 6 1 13 3 16 1 4 -17 12 -40 19 -24 7 -43 10 -43 5z"/>
<path d="M2549 1860 c13 -12 18 -20 10 -20 -7 0 -3 -7 9 -16 13 -9 25 -14 26
-13 9 10 -15 49 -29 49 -8 0 -15 5 -15 10 0 6 -6 10 -12 10 -7 -1 -2 -10 11
-20z"/>
<path d="M2480 1860 c0 -5 7 -10 16 -10 8 0 12 5 9 10 -3 6 -10 10 -16 10 -5
0 -9 -4 -9 -10z"/>
<path d="M1665 1840 c-3 -5 1 -10 9 -10 8 0 18 5 21 10 3 6 -1 10 -9 10 -8 0
-18 -4 -21 -10z"/>
<path d="M2690 1820 c0 -19 11 -26 23 -14 8 8 -3 34 -14 34 -5 0 -9 -9 -9 -20z"/>
<path d="M755 1800 c-3 -5 -1 -10 4 -10 6 0 11 5 11 10 0 6 -2 10 -4 10 -3 0
-8 -4 -11 -10z"/>
<path d="M1620 1791 c0 -5 6 -13 13 -19 10 -8 13 -6 14 9 1 10 -5 19 -13 19
-8 0 -14 -4 -14 -9z"/>
<path d="M2548 1751 c-4 -24 0 -30 19 -34 26 -5 28 1 11 38 -15 33 -25 32 -30
-4z"/>
<path d="M2630 1760 c20 -13 33 -13 25 0 -3 6 -14 10 -23 10 -15 0 -15 -2 -2
-10z"/>
<path d="M1446 1751 c2 -2 -12 -15 -31 -28 -20 -13 -33 -28 -30 -34 8 -12 85
-12 85 1 0 6 11 10 24 10 29 0 43 17 28 32 -8 8 -16 7 -27 -2 -19 -16 -32 -6
-16 14 10 11 7 14 -13 12 -13 0 -22 -3 -20 -5z"/>
<path d="M1630 1730 c-12 -8 -10 -10 8 -10 13 0 20 4 17 10 -7 12 -6 12 -25 0z"/>
<path d="M1570 1714 c0 -8 5 -12 10 -9 6 4 8 11 5 16 -9 14 -15 11 -15 -7z"/>
<path d="M2175 1710 c-3 -5 -1 -10 4 -10 6 0 11 5 11 10 0 6 -2 10 -4 10 -3 0
-8 -4 -11 -10z"/>
<path d="M2308 1703 c-12 -3 -18 -14 -18 -34 0 -18 4 -28 10 -24 6 4 8 11 5
16 -4 5 -2 9 3 9 5 0 12 9 15 20 3 11 4 19 4 19 -1 -1 -10 -3 -19 -6z"/>
<path d="M1290 1678 c0 -4 -18 -16 -40 -26 -30 -12 -40 -22 -38 -36 4 -25 22
-31 41 -12 8 9 33 23 56 32 48 19 53 40 11 46 -16 3 -30 1 -30 -4z"/>
<path d="M2625 1680 c3 -5 8 -10 11 -10 2 0 4 5 4 10 0 6 -5 10 -11 10 -5 0
-7 -4 -4 -10z"/>
<path d="M2500 1645 c-6 -8 -9 -19 -5 -25 11 -17 20 -11 21 15 2 29 1 30 -16
10z"/>
<path d="M2597 1646 c-4 -10 -5 -21 -2 -24 9 -9 17 6 13 25 -3 17 -4 17 -11
-1z"/>
<path d="M1378 1643 c6 -2 18 -2 25 0 6 3 1 5 -13 5 -14 0 -19 -2 -12 -5z"/>
<path d="M2322 1638 c-14 -14 -16 -38 -3 -38 8 0 23 41 17 47 -1 1 -8 -3 -14
-9z"/>
<path d="M1155 1620 c-3 -5 -1 -10 4 -10 6 0 11 5 11 10 0 6 -2 10 -4 10 -3 0
-8 -4 -11 -10z"/>
<path d="M1335 1620 c3 -5 11 -10 16 -10 6 0 7 5 4 10 -3 6 -11 10 -16 10 -6
0 -7 -4 -4 -10z"/>
<path d="M837 1603 c-24 -6 -16 -29 9 -26 17 2 19 -4 17 -45 l-2 -47 8 42 c8
47 6 45 41 60 l25 12 -27 0 c-14 1 -32 3 -40 5 -7 2 -21 2 -31 -1z"/>
<path d="M980 1595 c-8 -9 -8 -15 -2 -15 12 0 26 19 19 26 -2 2 -10 -2 -17
-11z"/>
<path d="M1065 1590 c3 -5 11 -10 16 -10 6 0 7 5 4 10 -3 6 -11 10 -16 10 -6
0 -7 -4 -4 -10z"/>
<path d="M1010 1574 c0 -8 5 -12 10 -9 6 3 10 10 10 16 0 5 -4 9 -10 9 -5 0
-10 -7 -10 -16z"/>
<path d="M775 1560 c-7 -12 2 -12 30 0 19 8 19 9 -2 9 -12 1 -25 -3 -28 -9z"/>
<path d="M630 1529 c0 -5 5 -7 10 -4 6 3 10 8 10 11 0 2 -4 4 -10 4 -5 0 -10
-5 -10 -11z"/>
<path d="M790 1506 c0 -2 7 -9 15 -16 13 -11 14 -10 9 4 -5 14 -24 23 -24 12z"/>
<path d="M1720 1489 c0 -5 5 -7 10 -4 6 3 10 8 10 11 0 2 -4 4 -10 4 -5 0 -10
-5 -10 -11z"/>
<path d="M1750 1484 c0 -8 5 -12 10 -9 6 3 10 10 10 16 0 5 -4 9 -10 9 -5 0
-10 -7 -10 -16z"/>
<path d="M860 1461 c0 -5 5 -13 10 -16 6 -3 10 -2 10 4 0 5 -4 13 -10 16 -5 3
-10 2 -10 -4z"/>
<path d="M3410 2613 c0 -13 5 -23 10 -23 13 0 13 11 0 30 -8 12 -10 11 -10 -7z"/>
<path d="M3346 2604 c-4 -9 -4 -19 -1 -22 3 -3 5 0 5 8 0 10 3 10 15 0 17 -14
35 -5 34 18 -1 15 -2 14 -6 -1 -4 -17 -6 -17 -23 -2 -16 15 -18 15 -24 -1z"/>
<path d="M3310 2581 c0 -5 7 -12 16 -15 14 -5 15 -4 4 9 -14 17 -20 19 -20 6z"/>
<path d="M59 2606 c-17 -37 -4 -78 24 -74 32 4 38 72 8 88 -18 9 -23 7 -32
-14z"/>
<path d="M202 2618 c-19 -19 -14 -28 18 -28 32 0 42 23 14 34 -20 8 -18 8 -32
-6z"/>
<path d="M1496 1175 c-9 -26 -7 -32 5 -12 6 10 9 21 6 23 -2 3 -7 -2 -11 -11z"/>
<path d="M1518 1093 c7 -3 16 -2 19 1 4 3 -2 6 -13 5 -11 0 -14 -3 -6 -6z"/>
<path d="M1456 1075 c-9 -26 -7 -32 5 -12 6 10 9 21 6 23 -2 3 -7 -2 -11 -11z"/>
<path d="M1310 1031 c0 -5 5 -13 10 -16 6 -3 10 -2 10 4 0 5 -4 13 -10 16 -5
3 -10 2 -10 -4z"/>
<path d="M779 1166 c-17 -37 -4 -78 24 -74 32 4 38 72 8 88 -18 9 -23 7 -32
-14z"/>
<path d="M922 1178 c-19 -19 -14 -28 18 -28 32 0 42 23 14 34 -20 8 -18 8 -32
-6z"/>
<path d="M2786 1155 c-8 -32 10 -67 32 -63 12 2 18 15 20 46 3 39 1 42 -21 42
-18 0 -27 -7 -31 -25z"/>
<path d="M3082 1178 c-19 -19 -14 -28 18 -28 32 0 42 23 14 34 -20 8 -18 8
-32 -6z"/>
<path d="M4670 1175 c-6 -8 -10 -29 -8 -47 2 -25 8 -33 22 -33 25 0 40 26 33
57 -8 31 -31 42 -47 23z"/>
<path d="M4812 1178 c-19 -19 -14 -28 18 -28 32 0 42 23 14 34 -20 8 -18 8
-32 -6z"/>
<path d="M1931 1176 c-7 -8 -11 -30 -9 -48 2 -28 7 -33 28 -33 22 0 25 5 28
39 4 50 -22 72 -47 42z"/>
<path d="M630 449 c-6 -11 -8 -33 -5 -50 5 -22 12 -29 31 -29 29 0 42 39 25
76 -13 29 -37 31 -51 3z"/>
<path d="M201 456 c-7 -8 -11 -30 -9 -48 2 -28 7 -33 28 -33 22 0 25 5 28 39
4 50 -22 72 -47 42z"/>
<path d="M783 413 c-7 -2 -13 -14 -13 -24 0 -31 54 -22 58 9 3 22 -14 28 -45
15z"/>
<path d="M1212 461 c-8 -5 -12 -22 -10 -42 2 -26 8 -35 25 -37 17 -3 24 3 29
24 10 41 -15 74 -44 55z"/>
<path d="M1502 461 c-8 -5 -12 -23 -10 -47 3 -34 6 -39 28 -39 22 0 25 5 28
39 3 34 -8 56 -28 56 -3 0 -11 -4 -18 -9z"/>
<path d="M353 5113 c9 -2 25 -2 35 0 9 3 1 5 -18 5 -19 0 -27 -2 -17 -5z"/>
<path d="M930 5106 c0 -22 17 -28 24 -10 9 22 8 24 -9 24 -8 0 -15 -6 -15 -14z"/>
<path d="M1793 5113 c9 -2 25 -2 35 0 9 3 1 5 -18 5 -19 0 -27 -2 -17 -5z"/>
<path d="M2500 5090 c0 -34 22 -49 45 -30 8 7 15 23 15 36 0 20 -5 24 -30 24
-27 0 -30 -3 -30 -30z"/>
<path d="M2792 5088 c2 -25 8 -33 23 -33 15 0 21 8 23 33 3 29 1 32 -23 32
-24 0 -26 -3 -23 -32z"/>
<path d="M5092 3273 c5 -25 28 -28 28 -4 0 12 -6 21 -16 21 -9 0 -14 -7 -12
-17z"/>
<path d="M4080 121 c0 -33 19 -41 50 -21 20 13 2 44 -29 48 -18 3 -21 -2 -21
-27z"/>
<path d="M4800 116 c0 -28 4 -36 18 -36 28 0 44 16 40 41 -2 18 -10 25 -30 27
-26 3 -28 1 -28 -32z"/>
<path d="M61 96 c-20 -24 -10 -70 16 -74 17 -3 24 3 29 24 11 44 -21 79 -45
50z"/>
<path d="M351 101 c-20 -13 -10 -85 13 -89 23 -5 36 14 36 50 0 30 -28 52 -49
39z"/>
<path d="M637 104 c-4 -4 -7 -29 -7 -56 0 -45 2 -48 26 -48 24 0 25 2 22 52
-2 38 -7 54 -18 56 -9 1 -19 0 -23 -4z"/>
<path d="M782 101 c-8 -5 -12 -22 -10 -46 2 -32 8 -40 28 -45 23 -6 25 -4 28
33 1 21 -3 45 -9 53 -13 16 -19 17 -37 5z"/>
<path d="M1196 103 c-3 -3 -6 -28 -6 -55 0 -36 4 -48 15 -48 11 0 15 12 15 49
0 47 -9 68 -24 54z"/>
<path d="M1240 56 c0 -44 3 -56 16 -56 12 0 14 10 12 52 -4 74 -28 77 -28 4z"/>
<path d="M1501 96 c-20 -24 -10 -70 16 -74 17 -3 24 3 29 24 11 44 -21 79 -45
50z"/>
<path d="M1642 98 c-20 -20 -14 -28 19 -28 24 0 30 4 27 17 -4 22 -29 28 -46
11z"/>
<path d="M3802 98 c-20 -20 -14 -28 19 -28 24 0 30 4 27 17 -4 22 -29 28 -46
11z"/>
<path d="M4522 98 c-20 -20 -14 -28 19 -28 24 0 30 4 27 17 -4 22 -29 28 -46
11z"/>
<path d="M4087 73 c-4 -3 -7 -19 -7 -35 0 -26 3 -29 27 -26 34 4 43 36 17 55
-20 15 -28 16 -37 6z"/>
<path d="M4800 35 c0 -32 2 -35 30 -35 35 0 35 1 15 40 -22 42 -45 39 -45 -5z"/>
<path d="M1354 46 c-14 -11 -16 -18 -8 -26 18 -18 49 -7 52 18 4 26 -15 29
-44 8z"/>
<path d="M4231 51 c-21 -14 -5 -43 21 -39 29 4 39 48 11 48 -10 0 -24 -4 -32
-9z"/>
</g>
</svg>
